<svg xmlns="http://www.w3.org/2000/svg" width="151" height="66" viewBox="0 0 151 66"><defs><style>.a{fill:none;}.b{fill:#bbb;}</style></defs><title>seguros-</title><rect class="a" width="151" height="66"/><path class="b" d="M140.48,37.86H124.56V34.07h15.92Zm-15.92-10h15.92v3.68H124.56Zm14.73,12.58c2.81,0,4.11-1.17,4.11-3.19V35.48a1.34,1.34,0,0,0-.6-1.17L141,32.75l1.82-1.56a1.34,1.34,0,0,0,.6-1.17V28.46c0-2-1.3-3.18-4.11-3.18H121.7V40.44Zm-29.56-2.58H93.81V34.07h15.92Zm-15.92-10h15.92v3.68H93.81Zm14.73,12.58c2.81,0,4.11-1.17,4.11-3.19V35.48a1.34,1.34,0,0,0-.6-1.17l-1.82-1.56,1.82-1.56a1.34,1.34,0,0,0,.6-1.17V28.46c0-2-1.3-3.18-4.11-3.18H91V40.44ZM78.24,25.28V37.73h-15V25.28H60.33V37c0,2.15,1.3,3.47,3.88,3.47h13c2.58,0,3.88-1.32,3.88-3.47V25.28ZM32.35,31.47V25.28H29.5V40.44h2.85v-6.3H47.62v6.3h2.86V25.28H47.62v6.19ZM21.16,28V25.28H4.38C1.8,25.28.5,26.6.5,28.74V37c0,2.15,1.3,3.47,3.88,3.47H21.16V37.73H3.42V28Z"/><path class="b" d="M149.25,25.43a1.91,1.91,0,0,1,1.09,1.09,2.16,2.16,0,0,1,0,1.63,1.94,1.94,0,0,1-.43.65,2.12,2.12,0,0,1-.66.44,2.29,2.29,0,0,1-1.63,0,2.12,2.12,0,0,1-.66-.44,1.94,1.94,0,0,1-.43-.65,2.16,2.16,0,0,1,0-1.63,1.91,1.91,0,0,1,1.09-1.09,2.16,2.16,0,0,1,1.63,0Zm-1.51.27a1.68,1.68,0,0,0-.56.38,1.8,1.8,0,0,0-.36.56,1.77,1.77,0,0,0-.13.69,1.82,1.82,0,0,0,.13.7,1.92,1.92,0,0,0,.36.56,1.85,1.85,0,0,0,.56.38,1.74,1.74,0,0,0,.69.14,1.82,1.82,0,0,0,.7-.14,1.93,1.93,0,0,0,.55-.38A1.74,1.74,0,0,0,150,28a1.82,1.82,0,0,0,.14-.7,1.77,1.77,0,0,0-.14-.69,1.63,1.63,0,0,0-.36-.56,1.75,1.75,0,0,0-.55-.38,1.82,1.82,0,0,0-.7-.14A1.74,1.74,0,0,0,147.74,25.7Zm-.06,2.83V26.14h.92a.87.87,0,0,1,.59.17.61.61,0,0,1,.19.49.72.72,0,0,1,0,.27.46.46,0,0,1-.13.2.8.8,0,0,1-.19.13l-.23.07.71,1.06h-.35l-.67-1.06H148v1.06Zm.95-1.32a.78.78,0,0,0,.23-.05A.33.33,0,0,0,149,27a.43.43,0,0,0,.06-.24.4.4,0,0,0,0-.2.4.4,0,0,0-.13-.13l-.18-.06-.21,0H148v.83h.65Z"/></svg>