<svg xmlns="http://www.w3.org/2000/svg" width="132.226" height="66" viewBox="0 0 132.226 66"><rect width="132.226" height="66" style="fill:none"/><path d="M5.794,24.762l3.777-7.31a1.485,1.485,0,0,1,.308-.412.718.718,0,0,1,.515-.187h.71a.514.514,0,0,1,.505.5V29.436a.511.511,0,0,1-.505.5h-.767a.511.511,0,0,1-.5-.5V20.574L6.916,26.2a1.694,1.694,0,0,1-.318.439.622.622,0,0,1-.449.16h-.71a.623.623,0,0,1-.449-.16,1.694,1.694,0,0,1-.318-.439L1.756,20.574v8.862a.511.511,0,0,1-.505.5H.484a.488.488,0,0,1-.355-.149.485.485,0,0,1-.15-.356V17.358A.481.481,0,0,1,.129,17a.482.482,0,0,1,.355-.151H1.2a.717.717,0,0,1,.514.187,1.509,1.509,0,0,1,.309.412Z" style="fill:#bbb"/><path d="M14.077,24.145a4.916,4.916,0,0,1,.411-1.607,4.57,4.57,0,0,1,.879-1.31,3.875,3.875,0,0,1,1.3-.879,4.341,4.341,0,0,1,1.691-.316,4.7,4.7,0,0,1,1.8.326,3.714,3.714,0,0,1,1.356.944,4.177,4.177,0,0,1,.86,1.5,6.071,6.071,0,0,1,.3,1.962v.5a.511.511,0,0,1-.505.5H15.74v.111a2.643,2.643,0,0,0,.777,1.955,2.608,2.608,0,0,0,1.841.682,3.205,3.205,0,0,0,1.543-.29,3.223,3.223,0,0,0,.832-.645A1.146,1.146,0,0,1,21,27.38a.77.77,0,0,1,.336-.057h.562a.549.549,0,0,1,.373.151.363.363,0,0,1,.131.355,1.991,1.991,0,0,1-.318.738,2.8,2.8,0,0,1-.757.749,4.552,4.552,0,0,1-1.234.578,5.747,5.747,0,0,1-1.73.234,4.162,4.162,0,0,1-1.683-.326,4.023,4.023,0,0,1-1.3-.9,4.456,4.456,0,0,1-.889-1.346,5.284,5.284,0,0,1-.411-1.691A7.859,7.859,0,0,1,14.077,24.145Zm1.663.057H21v-.057a2.392,2.392,0,0,0-.72-1.822,2.672,2.672,0,0,0-1.917-.683,2.824,2.824,0,0,0-1.009.178,2.527,2.527,0,0,0-.823.5,2.356,2.356,0,0,0-.56.793,2.765,2.765,0,0,0-.226,1.029Z" style="fill:#bbb"/><path d="M29.782,20.219a.511.511,0,0,1,.5.5v.6a.511.511,0,0,1-.5.505H28.7a1.9,1.9,0,0,0-2.151,2.151v5.458a.509.509,0,0,1-.5.5h-.692a.511.511,0,0,1-.5-.5V20.724a.511.511,0,0,1,.5-.5h.692a.509.509,0,0,1,.5.5V21.3a2.349,2.349,0,0,1,.9-.822,3.053,3.053,0,0,1,1.365-.262Z" style="fill:#bbb"/><path d="M32.867,25.734a3.817,3.817,0,0,0,.327,1.273,2.821,2.821,0,0,0,.618.859,2.367,2.367,0,0,0,.813.5,2.749,2.749,0,0,0,.916.158,3.241,3.241,0,0,0,1.533-.335,2.272,2.272,0,0,0,.991-1.124.993.993,0,0,1,.271-.4.572.572,0,0,1,.346-.1h.561a.516.516,0,0,1,.365.149.419.419,0,0,1,.14.354,2.411,2.411,0,0,1-.29.982,3.287,3.287,0,0,1-.8.992,4.663,4.663,0,0,1-3.113,1.093,4.627,4.627,0,0,1-1.823-.336,3.957,3.957,0,0,1-1.346-.916,4.156,4.156,0,0,1-.86-1.366,5.112,5.112,0,0,1-.346-1.681c-.012-.2-.022-.446-.028-.739a5.61,5.61,0,0,1,.028-.758,5.89,5.89,0,0,1,.384-1.683,4.26,4.26,0,0,1,.85-1.365,3.9,3.9,0,0,1,1.328-.916,4.571,4.571,0,0,1,1.813-.335,4.649,4.649,0,0,1,3.113,1.093,3.284,3.284,0,0,1,.8.991,2.42,2.42,0,0,1,.29.981.421.421,0,0,1-.14.356.516.516,0,0,1-.365.149h-.561a.579.579,0,0,1-.346-.1,1,1,0,0,1-.271-.4,2.268,2.268,0,0,0-.991-1.122,3.241,3.241,0,0,0-1.533-.336,2.84,2.84,0,0,0-.926.159,2.331,2.331,0,0,0-.822.5,2.836,2.836,0,0,0-.617.86,3.552,3.552,0,0,0-.309,1.272A7.714,7.714,0,0,0,32.867,25.734Z" style="fill:#bbb"/><path d="M41.206,27.493a2.753,2.753,0,0,1,.3-1.31,2.875,2.875,0,0,1,.822-.954,4.45,4.45,0,0,1,1.226-.635,8.947,8.947,0,0,1,1.486-.373l2.636-.432v-.243a1.683,1.683,0,0,0-.626-1.429,2.5,2.5,0,0,0-1.562-.477,2.143,2.143,0,0,0-1.243.3,3.2,3.2,0,0,0-.72.711.6.6,0,0,1-.243.2.9.9,0,0,1-.355.057h-.561A.516.516,0,0,1,42,22.762a.417.417,0,0,1-.14-.356,1.813,1.813,0,0,1,.327-.841,2.878,2.878,0,0,1,.786-.767,4.624,4.624,0,0,1,1.14-.551,4.3,4.3,0,0,1,1.374-.214,4.83,4.83,0,0,1,1.562.243,3.436,3.436,0,0,1,1.234.71,3.227,3.227,0,0,1,.8,1.159,4.105,4.105,0,0,1,.29,1.589v5.7a.511.511,0,0,1-.505.5H48.18a.511.511,0,0,1-.505-.5v-.767a1.7,1.7,0,0,1-.523.628,3.629,3.629,0,0,1-.814.458,5.052,5.052,0,0,1-.953.281,5.133,5.133,0,0,1-.926.092,4.18,4.18,0,0,1-1.337-.205,3.191,3.191,0,0,1-1.028-.553,2.4,2.4,0,0,1-.888-1.877Zm3.44,1.027a3.543,3.543,0,0,0,1.234-.2,2.912,2.912,0,0,0,.963-.571,2.464,2.464,0,0,0,.617-.869,2.841,2.841,0,0,0,.215-1.122v-.467l-2.206.354a5.323,5.323,0,0,0-1.87.6,1.217,1.217,0,0,0-.692,1.065.994.994,0,0,0,.093.412,1.228,1.228,0,0,0,.3.392,1.514,1.514,0,0,0,.533.3A2.558,2.558,0,0,0,44.646,28.52Z" style="fill:#bbb"/><path d="M60.651,29.436a.511.511,0,0,1-.505.5h-.692a.511.511,0,0,1-.505-.5V24.5a2.969,2.969,0,0,0-.692-2.149,2.925,2.925,0,0,0-3.823,0,2.9,2.9,0,0,0-.72,2.149v4.936a.484.484,0,0,1-.149.356.489.489,0,0,1-.355.149h-.692a.511.511,0,0,1-.505-.5V20.724a.511.511,0,0,1,.505-.5h.692a.509.509,0,0,1,.5.5V21.3a3.5,3.5,0,0,1,1.056-.869,3.688,3.688,0,0,1,1.842-.4,4.467,4.467,0,0,1,1.627.288,3.565,3.565,0,0,1,2.112,2.141,4.9,4.9,0,0,1,.3,1.759Z" style="fill:#bbb"/><path d="M65.661,26.669a3.174,3.174,0,0,0,.066.664,1.319,1.319,0,0,0,.234.533,1.056,1.056,0,0,0,.476.345,2.172,2.172,0,0,0,.8.123h.991a.511.511,0,0,1,.5.5v.6a.511.511,0,0,1-.5.5H67.045a2.967,2.967,0,0,1-2.356-.84,3.61,3.61,0,0,1-.729-2.432V21.827H62.577a.511.511,0,0,1-.506-.505v-.6a.511.511,0,0,1,.506-.5H63.96V17.171a.509.509,0,0,1,.5-.5h.692a.511.511,0,0,1,.5.5v3.048h2.375a.509.509,0,0,1,.5.5v.6a.484.484,0,0,1-.149.356.489.489,0,0,1-.355.149H65.661Z" style="fill:#bbb"/><path d="M72.393,18.237a.511.511,0,0,1-.5.505H70.822a.509.509,0,0,1-.5-.505V17.171a.509.509,0,0,1,.5-.5h1.066a.511.511,0,0,1,.5.5Zm-.188,11.2a.509.509,0,0,1-.5.5h-.692a.511.511,0,0,1-.5-.5V20.724a.511.511,0,0,1,.5-.5H71.7a.509.509,0,0,1,.5.5Z" style="fill:#bbb"/><path d="M76.618,29.436a.509.509,0,0,1-.5.5h-.692a.49.49,0,0,1-.356-.149.484.484,0,0,1-.149-.356V17.171a.509.509,0,0,1,.5-.5h.692a.509.509,0,0,1,.5.5Z" style="fill:#bbb"/><path d="M22.249,35.224a.584.584,0,0,1,.448.16,1.326,1.326,0,0,1,.261.477l4.581,11.816a.4.4,0,0,1,.019.13.509.509,0,0,1-.5.5H25.707a.707.707,0,0,1-.524-.158.979.979,0,0,1-.2-.309l-.8-2.076H18.266l-.8,2.076a.966.966,0,0,1-.206.309.7.7,0,0,1-.523.158H15.387a.509.509,0,0,1-.505-.5.4.4,0,0,1,.019-.13l4.58-11.816a1.342,1.342,0,0,1,.262-.477.582.582,0,0,1,.448-.16Zm1.028,8.208L21.22,38.1l-2.057,5.328Z" style="fill:#bbb"/><path d="M38.121,47.807a.484.484,0,0,1-.149.356.489.489,0,0,1-.355.149H36.2a.511.511,0,0,1-.5-.5V43.059a2.847,2.847,0,0,0-.523-1.8,1.91,1.91,0,0,0-1.608-.673A1.939,1.939,0,0,0,32,41.263a2.686,2.686,0,0,0-.57,1.8v4.748a.511.511,0,0,1-.505.5H29.5a.509.509,0,0,1-.5-.5V39.1a.509.509,0,0,1,.5-.5h1.42a.511.511,0,0,1,.505.5v.43a4.166,4.166,0,0,1,1.14-.8,3.519,3.519,0,0,1,1.553-.317,4.52,4.52,0,0,1,1.906.355,3.293,3.293,0,0,1,1.235.953,3.665,3.665,0,0,1,.663,1.393,6.954,6.954,0,0,1,.2,1.674Z" style="fill:#bbb"/><path d="M44.254,38.4a4.322,4.322,0,0,1,1.038.112,4.013,4.013,0,0,1,.8.28,3.1,3.1,0,0,1,.589.364,3.277,3.277,0,0,1,.392.366V35.542a.511.511,0,0,1,.505-.505H49a.511.511,0,0,1,.506.505V47.807a.511.511,0,0,1-.506.5H47.582a.511.511,0,0,1-.505-.5v-.43a3.122,3.122,0,0,1-.392.364,3.051,3.051,0,0,1-.589.366,4.142,4.142,0,0,1-.8.28,4.426,4.426,0,0,1-1.038.112,3.852,3.852,0,0,1-1.692-.364,4.013,4.013,0,0,1-1.29-.973,4.661,4.661,0,0,1-.841-1.4,5.127,5.127,0,0,1-.346-1.655c-.012-.187-.019-.4-.019-.654s.007-.467.019-.654a5.127,5.127,0,0,1,.346-1.655,4.661,4.661,0,0,1,.841-1.4,4.013,4.013,0,0,1,1.29-.973A3.852,3.852,0,0,1,44.254,38.4Zm-1.738,4.524a4.831,4.831,0,0,0,0,1.048,2.474,2.474,0,0,0,.747,1.747,2.332,2.332,0,0,0,1.552.534,2.275,2.275,0,0,0,1.543-.543,2.229,2.229,0,0,0,.719-1.551,6.671,6.671,0,0,0,0-1.422,2.259,2.259,0,0,0-.719-1.532,2.227,2.227,0,0,0-1.543-.562,2.332,2.332,0,0,0-1.552.534A2.474,2.474,0,0,0,42.516,42.927Z" style="fill:#bbb"/><path d="M54.29,35.037a.511.511,0,0,1,.505.505V37a.511.511,0,0,1-.505.5H52.682a.509.509,0,0,1-.505-.5V35.542a.509.509,0,0,1,.505-.505Zm.135,12.77a.511.511,0,0,1-.5.5H52.5a.511.511,0,0,1-.505-.5V39.1a.511.511,0,0,1,.505-.5h1.42a.511.511,0,0,1,.5.5Z" style="fill:#bbb"/><path d="M66.036,47.807a.484.484,0,0,1-.149.356.489.489,0,0,1-.355.149H64.111a.509.509,0,0,1-.505-.5V43.059a2.847,2.847,0,0,0-.524-1.8,1.908,1.908,0,0,0-1.607-.673,1.937,1.937,0,0,0-1.562.673,2.686,2.686,0,0,0-.57,1.8v4.748a.511.511,0,0,1-.505.5H57.417a.511.511,0,0,1-.505-.5V39.1a.511.511,0,0,1,.505-.5h1.421a.511.511,0,0,1,.505.5v.43a4.166,4.166,0,0,1,1.14-.8,3.518,3.518,0,0,1,1.552-.317,4.528,4.528,0,0,1,1.907.355,3.3,3.3,0,0,1,1.234.953A3.652,3.652,0,0,1,65.84,41.1a6.954,6.954,0,0,1,.2,1.674Z" style="fill:#bbb"/><path d="M68.429,40.984a2.578,2.578,0,0,1,.346-.843,3.194,3.194,0,0,1,.766-.841,4.137,4.137,0,0,1,1.216-.644A5.005,5.005,0,0,1,72.43,38.4a5.431,5.431,0,0,1,1.72.253,3.743,3.743,0,0,1,1.318.737,3.211,3.211,0,0,1,.851,1.225,4.493,4.493,0,0,1,.3,1.693v5.5a.509.509,0,0,1-.5.5H74.692a.511.511,0,0,1-.5-.5v-.616a3.162,3.162,0,0,1-1.131.925,4.058,4.058,0,0,1-1.879.383,4.483,4.483,0,0,1-1.439-.215,2.95,2.95,0,0,1-1.066-.607,2.708,2.708,0,0,1-.663-.926,2.861,2.861,0,0,1-.234-1.168,2.44,2.44,0,0,1,.916-2.021,5.318,5.318,0,0,1,2.449-.989l3.047-.524a1.178,1.178,0,0,0-.5-1.084,2.309,2.309,0,0,0-1.253-.319,1.658,1.658,0,0,0-.729.131,2.2,2.2,0,0,0-.5.356,1.107,1.107,0,0,1-.308.2.817.817,0,0,1-.309.057H68.84a.471.471,0,0,1-.318-.113A.29.29,0,0,1,68.429,40.984Zm3.122,5.272a3.348,3.348,0,0,0,1.131-.178,2.528,2.528,0,0,0,.832-.476,1.991,1.991,0,0,0,.505-.673,1.844,1.844,0,0,0,.168-.767v-.187l-2.542.448a2.625,2.625,0,0,0-1.1.383.81.81,0,0,0-.337.683.613.613,0,0,0,.4.58A2.23,2.23,0,0,0,71.551,46.256Z" style="fill:#bbb"/><path d="M108.429,56.467c-.028-.2-.185-.134-.3-.135a21.914,21.914,0,0,1-6.756-1.2,22.362,22.362,0,0,1-5.419-2.67A25.615,25.615,0,0,1,93,50.124a23.571,23.571,0,0,1-6.191-9.349A23.729,23.729,0,0,1,85.6,35.709a20.917,20.917,0,0,1-.139-3.907,23.725,23.725,0,0,1,7.477-15.969,24.122,24.122,0,0,1,4.938-3.526A23.476,23.476,0,0,1,104.811,9.9a21.785,21.785,0,0,1,2.763-.308,17.544,17.544,0,0,1,1.8-.043,27.556,27.556,0,0,1,3.136.308,23.178,23.178,0,0,1,8.6,3.231,23.545,23.545,0,0,1,5.088,4.284,22.077,22.077,0,0,1,3.242,4.639,23.616,23.616,0,0,1,2.123,5.611,21.643,21.643,0,0,1,.529,3.34,20.821,20.821,0,0,1,.125,2.2,24.917,24.917,0,0,1-.964,6.314,22.921,22.921,0,0,1-1.624,4.068,23.954,23.954,0,0,1-2.924,4.41,24.374,24.374,0,0,1-2.112,2.222,22.671,22.671,0,0,1-2.659,2.109,23.52,23.52,0,0,1-6.418,3.085,22.273,22.273,0,0,1-4.046.834,15.073,15.073,0,0,1-2.068.13c-.1,0-.215-.017-.227.136Zm-6.371-18.459a2.718,2.718,0,0,0,1.011,2.348,2.815,2.815,0,0,0,4.241-.847q.7-1.229,1.4-2.452,1.678-2.916,3.36-5.831c1.09-1.9,2.172-3.8,3.268-5.689a2.112,2.112,0,0,1,.98-.909,1.223,1.223,0,0,1,1.2.1c.06.035.136.065.184,0,.069-.1.018-.188-.049-.276a7.14,7.14,0,0,0-.965-1.1,4.33,4.33,0,0,0-3.627-1.249,4.171,4.171,0,0,0-2.869,1.779c-1.448,2.085-2.656,4.322-3.975,6.489-1.172,1.925-2.324,3.863-3.476,5.8A3.042,3.042,0,0,0,102.058,38.008Zm-6.4,3.239a2.632,2.632,0,0,0,2.279-1.307c.584-.984,1.164-1.971,1.748-2.955,1.3-2.192,2.573-4.4,3.923-6.566a3.3,3.3,0,0,0-.132-3.294,2.867,2.867,0,0,0-4.62.246c-.388.666-.776,1.332-1.17,1.994-1.512,2.542-3.037,5.076-4.533,7.628a2.777,2.777,0,0,0,.021,2.974A2.682,2.682,0,0,0,95.654,41.247Zm27.48,0a2.694,2.694,0,0,0,2.538-2.792,3.737,3.737,0,0,0-.608-1.844c-.761-1.3-1.478-2.629-2.254-3.922-1.353-2.254-2.74-4.488-4.106-6.734a.428.428,0,0,0-.411-.236,1.74,1.74,0,0,0-1.518.76c-.68.992-1.192,2.085-1.835,3.1a.687.687,0,0,0,.038.814c.5.825.972,1.664,1.45,2.5.613,1.074,1.215,2.153,1.832,3.224.695,1.209,1.42,2.4,2.1,3.617A2.892,2.892,0,0,0,123.134,41.25Z" style="fill:#bbb"/></svg>