<svg xmlns="http://www.w3.org/2000/svg" width="132" height="66" viewBox="0 0 132 66"><defs><style>.a{fill:none;}.b,.c{fill:#bbb;}.c{fill-rule:evenodd;}</style></defs><title>seguros-</title><rect class="a" width="132" height="66"/><path class="b" d="M77.74,23.74h-1.1c-5.83,0-11.3,4.29-11.54,12.64C64.89,44,68.84,49.31,75.53,49.31,81,49.31,83,45.48,83,45.48c.32,2.56,1.7,3.35,4.47,3.35V23.74Zm5,14.78c0,3.48-2,6.78-6.32,6.78-3.87,0-6.65-2.6-6.46-8.86.17-6,3-8.64,6.88-8.64.3,0,.58,0,.84,0h5.06Z"/><path class="b" d="M38.36,23.56l0,17.41c0,2.53-2.1,3.82-4.87,3.82S28.66,43.5,28.66,41v-13c0-3.71-2.34-4.39-4.38-4.39V42c0,4.66,4.19,7,9.1,7,4.75,0,9.41-2.29,9.41-7V28.5c0-3.65-1.36-4.94-4.41-4.94Z"/><path class="b" d="M49.09,33.15V48.67h4.39V33c0-3.32,1.78-5.33,5.17-5.33H60c3.84,0,4.46-2,4.46-4.12H58.27c-5.44,0-9.18,3.15-9.18,9.6Z"/><path class="b" d="M13,34.8,7.57,33.32c-1.47-.4-2.81-1-2.81-2.85s1.13-2.8,3.51-2.8H13c2.11,0,4.62-.68,4.62-4.11h-9C3.16,23.57,0,26.36,0,30.35c0,3.72,2.36,5.83,6.57,6.95l4.68,1.23c1.93.52,2.62,1.73,2.62,3,0,1.87-1.18,3-4.09,3l-8.95.06v4.06h9.1c5.53,0,8.7-3,8.7-6.88s-1.55-5.87-5.68-7Z"/><path class="c" d="M113.49,54.33c.06,0,.09,0,.08.13a5.82,5.82,0,0,1-2.74,3.33c-2.44,1.22-3.72.52-3.89.44a.18.18,0,0,1-.08-.14A.15.15,0,0,1,107,58a17.48,17.48,0,0,0,6.45-3.63s0,0,.07,0Zm.29-4.43a39.33,39.33,0,0,1-8.14,3.32c-3.59,1-6.46,1.52-8.4,1.23a4.54,4.54,0,0,1-2.78-1.32s-.09-.08-.07-.13a.14.14,0,0,1,.13-.12l.66-.05c1.43-.1,4-.16,7-.59,3.46-.51,9-1.5,11.57-2.49.06,0,.09,0,0,.15Zm.26,1.51s.08,0,.07.13a11,11,0,0,1-2.35,2.13,25.1,25.1,0,0,1-3.51,2,21.62,21.62,0,0,1-3.76,1.5,9.91,9.91,0,0,1-3.59.37,3.71,3.71,0,0,1-2-.74.14.14,0,0,1,0-.1.15.15,0,0,1,.13-.12,51.82,51.82,0,0,0,8.61-2.18,27.75,27.75,0,0,0,6.42-3Zm13.69-12.49s.08,0,0,.15c-1.24,1-6.9,5.76-10,8.26l-.11.1c-.88.66-1.48.82-1.57-.64,0-.36-.08-.65-.08-.65,0-.31,0-.3.16-.37,1-.61,2.9-1.68,4.42-2.58l7.09-4.27Zm-4.18,6.29c.06,0,.09.06.07.15-1.23,1.41-5.75,6.38-7.8,8.57-.21.22-.32.12-.24-.11a13.92,13.92,0,0,0,.56-1.72,1.86,1.86,0,0,1,.45-1c2.66-2.23,5.21-4.45,6.89-5.83l.07,0Zm5.59-8.74s.11,0,.12,0,.06.07,0,.13c-.57.37-13.24,5.6-13.36,5.65a1.49,1.49,0,0,1-2-.6c-.23-.4-.44-.72-.53-.87s-.18-.21.19-.31c0,0,3.57-1,6.74-1.76,3.67-.92,7.82-2,8.91-2.26Zm1.33-1.82a.12.12,0,0,1,.09.1.08.08,0,0,1-.08.07c-1,.16-18.57,2.56-18.7,2.58l-.31,0a1.51,1.51,0,0,1-.3,0,3.86,3.86,0,0,1-2.38-1.27,4.51,4.51,0,0,1-.8-1.28.1.1,0,0,1,0-.12.16.16,0,0,1,.11-.07H125.9c2.09,0,3.76,0,4.57,0Zm1.15-1.56a.09.09,0,0,1,.07.1s0,.07-.1.07l-25.75-1.81a2.45,2.45,0,0,1-.59-.11,5.06,5.06,0,0,1-3.34-3.42.26.26,0,0,1,0-.15.13.13,0,0,1,.15-.06s27.31,5,29.56,5.38Zm-4.8-4.49c0,.11,0,.14-.12.13-1-.51-3.24-1.59-5.49-2.71-1.91-.95-15-7.1-15.85-7.56l-1.56-.8c-.23-.11-.44-.25-.65-.37a4.11,4.11,0,0,1-1.27-1.08,4.83,4.83,0,0,1-.66-1.2,6.3,6.3,0,0,1-.34-2.4.1.1,0,0,1,.07-.09.17.17,0,0,1,.16,0l1.63,1,.87.53L108.39,17c6.67,4.16,16,10.1,18.43,11.63Zm2.83,2.68a.12.12,0,0,1,.07.09.11.11,0,0,1-.13.07c-.73-.21-2.28-.64-4.24-1.17C120.88,29,104,24.51,103.68,24.42l-.08,0a5.58,5.58,0,0,1-2.49-1.52,3.66,3.66,0,0,1-.51-.65,6,6,0,0,1-.74-2.37.16.16,0,0,1,0-.1s.08-.05.17,0l2.77,1.08c6.56,2.55,24,9.32,26.81,10.47Z"/></svg>