<svg xmlns="http://www.w3.org/2000/svg" width="153" height="66" viewBox="0 0 153 66"><defs><style>.a{fill:none;}.b,.c{fill:#bbb;}.b{fill-rule:evenodd;}</style></defs><title>seguros-</title><rect class="a" width="153" height="66"/><path class="b" d="M.3,47.36V18.92H14.45L39.22,47H25.41l-6.15-7.1-3.32,7.43ZM45.79,47H59.25L33.06,18.64H22.84l-1.42,7.1H26.5L45.79,47ZM9.44,29v9.8h9.41l-8-9.8Z"/><path class="c" d="M63.18,20.25h5.16l2,7.73,2-7.73h5.16V33H74.25V23.26L71.78,33H68.87L66.4,23.26V33H63.18Z"/><path class="c" d="M88.89,29.22H81.82a2.29,2.29,0,0,0,.46,1.27,1.68,1.68,0,0,0,1.34.6,2,2,0,0,0,1-.26,2.48,2.48,0,0,0,.62-.58l3.47.32a5.05,5.05,0,0,1-1.92,2,7,7,0,0,1-3.23.6,6.53,6.53,0,0,1-2.88-.52A4.24,4.24,0,0,1,78.92,31a5,5,0,0,1-.69-2.64,4.62,4.62,0,0,1,1.39-3.5,5.25,5.25,0,0,1,3.81-1.33,6.76,6.76,0,0,1,3.12.6,3.93,3.93,0,0,1,1.74,1.73,6.33,6.33,0,0,1,.6,3Zm-3.58-1.69a2.38,2.38,0,0,0-.55-1.46,1.62,1.62,0,0,0-1.18-.44,1.58,1.58,0,0,0-1.34.67,2.37,2.37,0,0,0-.41,1.23Z"/><path class="c" d="M89.48,23.75h3.3v1.51a3.51,3.51,0,0,1,1-1.35A2,2,0,0,1,95,23.54a3.67,3.67,0,0,1,1.71.49l-1.09,2.51a2.68,2.68,0,0,0-1-.26,1.24,1.24,0,0,0-1.08.57,5.87,5.87,0,0,0-.54,3V33H89.48Z"/><path class="c" d="M96.39,20.25h3.53v2.4H96.39Zm0,3.5h3.53V33H96.39Z"/><path class="c" d="M110.79,20.25V33h-3.3V31.59a4.36,4.36,0,0,1-1.26,1.17,3.58,3.58,0,0,1-1.7.4,3.27,3.27,0,0,1-2.87-1.43,5.88,5.88,0,0,1-1-3.48,5.06,5.06,0,0,1,1.1-3.5,3.59,3.59,0,0,1,2.79-1.21,3.77,3.77,0,0,1,1.49.28,3.25,3.25,0,0,1,1.19.83v-4.4Zm-3.53,8.07a2.38,2.38,0,0,0-.46-1.61,1.46,1.46,0,0,0-1.16-.54,1.25,1.25,0,0,0-1,.52,2.71,2.71,0,0,0-.42,1.71,2.57,2.57,0,0,0,.43,1.65,1.33,1.33,0,0,0,1.06.53,1.44,1.44,0,0,0,1.13-.53A2.66,2.66,0,0,0,107.26,28.32Z"/><path class="c" d="M112,20.25h3.53v2.4H112Zm0,3.5h3.53V33H112Z"/><path class="c" d="M116.29,28.38a4.61,4.61,0,0,1,1.42-3.48,6.18,6.18,0,0,1,8,.24,4.67,4.67,0,0,1,1.13,3.18,4.6,4.6,0,0,1-1.41,3.48,5.33,5.33,0,0,1-3.89,1.36A5.47,5.47,0,0,1,118,32,4.52,4.52,0,0,1,116.29,28.38Zm3.54,0a2.81,2.81,0,0,0,.49,1.82,1.64,1.64,0,0,0,2.51,0,2.93,2.93,0,0,0,.49-1.87,2.7,2.7,0,0,0-.5-1.78A1.52,1.52,0,0,0,121.6,26a1.57,1.57,0,0,0-1.27.59A2.73,2.73,0,0,0,119.83,28.37Z"/><path class="c" d="M127.5,23.75h3.28v1.5a4.93,4.93,0,0,1,1.49-1.32,4,4,0,0,1,1.84-.39,3,3,0,0,1,2.29.87,3.8,3.8,0,0,1,.83,2.69V33h-3.55V27.89a1.82,1.82,0,0,0-.32-1.23,1.13,1.13,0,0,0-.9-.36,1.3,1.3,0,0,0-1,.49,2.84,2.84,0,0,0-.4,1.74V33H127.5Z"/><path class="c" d="M141.48,26.73l-3.37-.36a3.84,3.84,0,0,1,.55-1.39,3.06,3.06,0,0,1,1-.88,4.36,4.36,0,0,1,1.33-.41,10.63,10.63,0,0,1,1.84-.15,14.41,14.41,0,0,1,2.55.18,3.25,3.25,0,0,1,1.6.74,2.59,2.59,0,0,1,.71,1.1,4.09,4.09,0,0,1,.26,1.37V31a5.31,5.31,0,0,0,.08,1,5.09,5.09,0,0,0,.36.94h-3.31a4,4,0,0,1-.26-.54,4.21,4.21,0,0,1-.12-.59,4.43,4.43,0,0,1-1.38,1,5.8,5.8,0,0,1-2.17.38,3.68,3.68,0,0,1-2.5-.76,2.44,2.44,0,0,1-.86-1.88,2.48,2.48,0,0,1,.62-1.73,4.18,4.18,0,0,1,2.27-1c1.32-.27,2.18-.46,2.57-.56a13.13,13.13,0,0,0,1.25-.42,1.22,1.22,0,0,0-.27-.91,1.31,1.31,0,0,0-.94-.26,2.5,2.5,0,0,0-1.3.27A1.54,1.54,0,0,0,141.48,26.73Zm3.06,1.85A14,14,0,0,1,143,29a3.36,3.36,0,0,0-1.36.57.86.86,0,0,0-.3.65.91.91,0,0,0,.29.68,1.25,1.25,0,0,0,.85.26,2.2,2.2,0,0,0,1.1-.29,1.72,1.72,0,0,0,.72-.69,2.37,2.37,0,0,0,.21-1.07Z"/><path class="c" d="M149.16,20.25h3.54V33h-3.54Z"/><path class="c" d="M65.33,43.77a2.87,2.87,0,0,0,.39,1.41,2.56,2.56,0,0,0,2.33,1A3.92,3.92,0,0,0,69.41,46a1.55,1.55,0,0,0,1.19-1.54,1.35,1.35,0,0,0-.5-1.18,5.18,5.18,0,0,0-1.6-.61l-1.34-.31a6,6,0,0,1-1.85-.67,2.15,2.15,0,0,1-.94-1.91,3,3,0,0,1,.92-2.25,3.64,3.64,0,0,1,2.62-.88,4.51,4.51,0,0,1,2.65.77,2.82,2.82,0,0,1,1.09,2.47h-1.3a2.63,2.63,0,0,0-.42-1.25,2.44,2.44,0,0,0-2.06-.8,2.27,2.27,0,0,0-1.68.52,1.62,1.62,0,0,0-.51,1.19,1.16,1.16,0,0,0,.6,1.09,8.58,8.58,0,0,0,1.8.56l1.38.32a4.32,4.32,0,0,1,1.55.65A2.46,2.46,0,0,1,72,44.21a2.6,2.6,0,0,1-1.2,2.42,5.23,5.23,0,0,1-2.79.73,4.08,4.08,0,0,1-2.9-1,3.34,3.34,0,0,1-1-2.62Z"/><path class="c" d="M77.22,36.88h7.39v1.24h-6v3.1h5.58v1.17H78.57v3.46h6.15v1.21h-7.5Z"/><path class="c" d="M96.53,37.17A3.6,3.6,0,0,1,98.36,40H97a2.48,2.48,0,0,0-1-1.62,3.44,3.44,0,0,0-1.94-.51,3,3,0,0,0-2.33,1.06,4.61,4.61,0,0,0-1,3.16,5.11,5.11,0,0,0,.78,3,2.88,2.88,0,0,0,2.55,1.15,3.2,3.2,0,0,0,2.24-.81,3.39,3.39,0,0,0,.91-2.58H94.06V41.61h4.47v5.45h-.89l-.33-1.31a5.4,5.4,0,0,1-1.22,1.07,4.54,4.54,0,0,1-2.27.51,4.37,4.37,0,0,1-3.06-1.17,5.6,5.6,0,0,1-1.4-4,5.81,5.81,0,0,1,1.37-4.07,4.3,4.3,0,0,1,3.36-1.44A5.05,5.05,0,0,1,96.53,37.17Z"/><path class="c" d="M105.48,36.88v6.29A3.7,3.7,0,0,0,105.9,45a2.23,2.23,0,0,0,2.1,1.1,2.47,2.47,0,0,0,2.4-1.19,3.8,3.8,0,0,0,.34-1.76V36.88h1.4V42.6a6.59,6.59,0,0,1-.51,2.89,4.28,4.28,0,0,1-7,0,6.59,6.59,0,0,1-.51-2.89V36.88Z"/><path class="c" d="M117.61,36.88h4.63a4.45,4.45,0,0,1,1.88.34,2.4,2.4,0,0,1,1.41,2.4,2.53,2.53,0,0,1-1.43,2.44,2.1,2.1,0,0,1,.89.63,2.29,2.29,0,0,1,.34,1.29l0,1.36a4.12,4.12,0,0,0,.09.87.88.88,0,0,0,.45.62v.23h-1.69a1,1,0,0,1-.11-.34,6.41,6.41,0,0,1-.07-.8l-.09-1.7a1.43,1.43,0,0,0-.72-1.34,3,3,0,0,0-1.2-.19H119v4.37h-1.38Zm4.48,4.66a2.53,2.53,0,0,0,1.49-.39,1.59,1.59,0,0,0,.55-1.4,1.51,1.51,0,0,0-.77-1.48,2.42,2.42,0,0,0-1.1-.21H119v3.48Z"/><path class="c" d="M139.28,38.33a5.66,5.66,0,0,1,1,3.46,6,6,0,0,1-1.16,3.79,4.58,4.58,0,0,1-3.87,1.78,4.66,4.66,0,0,1-3.7-1.55,5.87,5.87,0,0,1-1.2-3.79,6,6,0,0,1,1-3.54,4.45,4.45,0,0,1,3.89-1.88A4.69,4.69,0,0,1,139.28,38.33Zm-1.22,6.49a5.57,5.57,0,0,0,.81-3,4.29,4.29,0,0,0-.94-2.9,3.19,3.19,0,0,0-2.56-1.09,3.34,3.34,0,0,0-2.58,1.08,4.56,4.56,0,0,0-1,3.2,4.71,4.71,0,0,0,.85,2.86,3.25,3.25,0,0,0,2.78,1.16A2.85,2.85,0,0,0,138.06,44.82Z"/><path class="c" d="M146,43.77a2.87,2.87,0,0,0,.39,1.41,2.56,2.56,0,0,0,2.33,1,3.92,3.92,0,0,0,1.36-.22,1.55,1.55,0,0,0,1.19-1.54,1.35,1.35,0,0,0-.5-1.18,5.18,5.18,0,0,0-1.6-.61l-1.34-.31a6,6,0,0,1-1.85-.67,2.15,2.15,0,0,1-.94-1.91A3,3,0,0,1,146,37.5a3.64,3.64,0,0,1,2.62-.88,4.51,4.51,0,0,1,2.65.77,2.82,2.82,0,0,1,1.09,2.47h-1.3a2.63,2.63,0,0,0-.42-1.25,2.44,2.44,0,0,0-2.06-.8,2.27,2.27,0,0,0-1.68.52,1.62,1.62,0,0,0-.51,1.19,1.16,1.16,0,0,0,.6,1.09,8.58,8.58,0,0,0,1.8.56l1.38.32a4.32,4.32,0,0,1,1.55.65,2.46,2.46,0,0,1,.94,2.07,2.6,2.6,0,0,1-1.2,2.42,5.23,5.23,0,0,1-2.79.73,4.08,4.08,0,0,1-2.9-1,3.34,3.34,0,0,1-1-2.62Z"/></svg>