<svg xmlns="http://www.w3.org/2000/svg" width="163" height="66" viewBox="0 0 163 66"><defs><style>.a{fill:none;}.b{fill:#bbb;}</style></defs><title>seguros-</title><rect class="a" width="163" height="66"/><path class="b" d="M1.09,18.74c0-1.08,0-2,0-2.87S1,14.19.94,13.34l.72.07c.26,0,.55,0,.88,0s.92,0,1.41,0,1-.05,1.43-.05a9.33,9.33,0,0,1,2.17.2,3.08,3.08,0,0,1,1.23.6,3.29,3.29,0,0,1,.91,1.13,3.46,3.46,0,0,1,.3,1.5,4.7,4.7,0,0,1-.37,1.92,3.33,3.33,0,0,1-1,1.29A4.47,4.47,0,0,1,7,20.71,7.91,7.91,0,0,1,5,21H4c0,1,0,1.95,0,2.91s.06,1.93.12,2.88a5.39,5.39,0,0,0-.72,0H1.66a5.39,5.39,0,0,0-.72,0c.05-.81.09-1.63.11-2.47s0-1.79,0-2.87Zm5.82-1.65a4.06,4.06,0,0,0-.17-1.25A2.09,2.09,0,0,0,6.29,15a1.7,1.7,0,0,0-.66-.44,2.39,2.39,0,0,0-.79-.14H4.19l-.17,0c0,.94,0,1.86,0,2.76S4,19,4,20a5.81,5.81,0,0,0,1-.09,2.5,2.5,0,0,0,.95-.4,2.27,2.27,0,0,0,.7-.87A3.52,3.52,0,0,0,6.91,17.09Z"/><path class="b" d="M15,20.6v.8c0,1.08,0,2,0,2.87s.06,1.66.12,2.47a5.64,5.64,0,0,0-.73,0H12.68a5.39,5.39,0,0,0-.72,0c0-.81.09-1.63.11-2.47s0-1.79,0-2.87V18.74c0-1.08,0-2,0-2.87S12,14.19,12,13.34l.72.07c.26,0,.55,0,.88,0s.75,0,1.2,0,1-.05,1.66-.05c.5,0,.92,0,1.27,0a6.53,6.53,0,0,1,.91.12,3.44,3.44,0,0,1,.66.2,4.68,4.68,0,0,1,.54.3,3,3,0,0,1,1.27,2.58,3.41,3.41,0,0,1-.78,2.32A4.27,4.27,0,0,1,18,20.17c.63,1.1,1.3,2.21,2,3.3s1.43,2.19,2.15,3.27a8.77,8.77,0,0,0-.88,0H19.55a8.77,8.77,0,0,0-.88,0L15.18,20.6ZM18.08,17a4.58,4.58,0,0,0-.17-1.37,1.58,1.58,0,0,0-.54-.77,2.05,2.05,0,0,0-.94-.34,10.64,10.64,0,0,0-1.37-.08Q15,17.1,15,19.76l.22,0h.21a2.62,2.62,0,0,0,2-.7A2.89,2.89,0,0,0,18.08,17Z"/><path class="b" d="M30,27a9.62,9.62,0,0,1-2.33-.26,4.87,4.87,0,0,1-1.88-.88,4.1,4.1,0,0,1-1.26-1.58,5.35,5.35,0,0,1-.46-2.35c0-.52,0-1,0-1.39s0-.79,0-1.14,0-.69,0-1,0-.66,0-1c0-1.05,0-1.91,0-2.56s0-1.13-.06-1.46l.8.07.8,0,.8,0,.8-.07c-.13,1.26-.21,2.44-.23,3.52s0,2.19,0,3.31A13,13,0,0,0,27.19,23a4,4,0,0,0,.75,1.69,2.34,2.34,0,0,0,1.22.79,6.45,6.45,0,0,0,1.68.2,2.67,2.67,0,0,0,1.83-.59,3.59,3.59,0,0,0,1-1.56,8.5,8.5,0,0,0,.42-2.23c0-.84.07-1.71.07-2.63s0-1.79,0-2.68-.07-1.78-.12-2.68l.53.07.46,0a3.79,3.79,0,0,0,.49,0l.49-.07c0,.29-.05.67-.08,1.15s0,1-.08,1.67,0,1.33-.06,2.09,0,1.56,0,2.41q0,3.39-1.47,4.86A5.78,5.78,0,0,1,30,27Z"/><path class="b" d="M39.21,18.74c0-1.08,0-2,0-2.87s-.07-1.68-.12-2.53l.72.07c.26,0,.56,0,.88,0s.91,0,1.44,0,1.23-.05,2.09-.05a14.27,14.27,0,0,1,3,.3,6.24,6.24,0,0,1,2.37,1,4.75,4.75,0,0,1,1.55,1.94,7.57,7.57,0,0,1,.54,3.07,7.84,7.84,0,0,1-.53,2.93,6.77,6.77,0,0,1-1.47,2.23,6.23,6.23,0,0,1-2.14,1.41,6.88,6.88,0,0,1-2.61.49l-2.49,0-1.8,0h-.88a5.39,5.39,0,0,0-.72,0c.05-.81.09-1.63.12-2.47s0-1.79,0-2.87Zm2.88,4.08V24c0,.38,0,.72,0,1s0,.52,0,.61l.71,0,1,0a4.36,4.36,0,0,0,3.49-1.5,6.86,6.86,0,0,0,1.29-4.55,6.82,6.82,0,0,0-.32-2.16,4.86,4.86,0,0,0-.91-1.63,4,4,0,0,0-1.4-1,4.54,4.54,0,0,0-1.84-.36q-.7,0-1.14,0l-.89.07c0,.09,0,.29,0,.6s0,.67,0,1.06v6.61Z"/><path class="b" d="M54.17,15.87c0-.84-.07-1.68-.12-2.53q.89,0,1.74.06c.57,0,1.15,0,1.73,0,1,0,1.82,0,2.57,0s1.25,0,1.51-.07a3.59,3.59,0,0,0-.08.82c0,.21,0,.37,0,.49s0,.24.06.39L60.36,15l-1.3-.08-1.15-.06-.72,0c0,.72-.08,1.43-.08,2.13s0,1.41,0,2.13L59.39,19l2.13-.1c0,.22-.06.39-.07.51a2.17,2.17,0,0,0,0,.37,1.82,1.82,0,0,0,0,.32c0,.11,0,.27.06.48-1.48-.12-3-.18-4.42-.18,0,.42,0,.83,0,1.25s0,.83,0,1.25c0,.84,0,1.66.05,2.44.75,0,1.49,0,2.23-.06s1.49-.11,2.24-.2q0,.23-.06.39c0,.12,0,.28,0,.49s0,.37,0,.49,0,.21.06.29l-1.3,0H54.43l-.38,0c.05-.81.09-1.63.12-2.47s0-1.79,0-2.87V18.74C54.21,17.66,54.2,16.7,54.17,15.87Z"/><path class="b" d="M64.31,17.22c0-.9,0-1.65,0-2.26s0-1.15,0-1.62a4.71,4.71,0,0,0,.87.1,4.8,4.8,0,0,0,.88-.1L70.17,18l4.27,4.65V19c0-.64,0-1.27,0-1.89s0-1.18,0-1.7,0-1,0-1.35a5.56,5.56,0,0,0-.07-.76,4.8,4.8,0,0,0,.88.1,4.89,4.89,0,0,0,.88-.1c-.07,1.18-.12,2.25-.16,3.21s-.07,1.86-.1,2.7,0,1.68,0,2.51,0,1.7,0,2.64v2.34a6.91,6.91,0,0,0-.8,0,5.82,5.82,0,0,0-.76,0q-4-4.68-8.52-9.42l0,1.13c0,.38,0,.76,0,1.15v2.26c0,.78,0,1.45,0,2s0,1,0,1.39,0,.69,0,.93,0,.43,0,.57a2.49,2.49,0,0,0-.47,0h-.45c-.3,0-.6,0-.9,0a9.35,9.35,0,0,0,.1-1.11c0-.64.08-1.41.13-2.33s.08-1.91.11-3S64.31,18.21,64.31,17.22Z"/><path class="b" d="M89.59,25.37a4.83,4.83,0,0,0-.15.83,8.85,8.85,0,0,1-4,.79,9,9,0,0,1-3-.47,6.45,6.45,0,0,1-2.26-1.35,5.66,5.66,0,0,1-1.41-2.06,6.61,6.61,0,0,1-.49-2.57,8.42,8.42,0,0,1,.63-3.44,6.41,6.41,0,0,1,1.7-2.31,6.71,6.71,0,0,1,2.47-1.29A10.24,10.24,0,0,1,86,13.09a8.25,8.25,0,0,1,1.08.07c.37.06.74.13,1.09.21a7.3,7.3,0,0,1,1,.3A5.2,5.2,0,0,1,90,14a6.22,6.22,0,0,0-.3,1,8.31,8.31,0,0,0-.15,1h-.27a4.7,4.7,0,0,0-1.52-1.33,3.92,3.92,0,0,0-1.83-.4,3.72,3.72,0,0,0-1.57.35,4.17,4.17,0,0,0-1.44,1.07,5.61,5.61,0,0,0-1,1.84,8,8,0,0,0-.4,2.69,7.19,7.19,0,0,0,.41,2.56,5.13,5.13,0,0,0,1.06,1.74,4.07,4.07,0,0,0,1.48,1,4.69,4.69,0,0,0,1.67.31,4.61,4.61,0,0,0,1-.1,5.5,5.5,0,0,0,.95-.3,4.64,4.64,0,0,0,.89-.45,4.45,4.45,0,0,0,.73-.61l.26.16A8.09,8.09,0,0,0,89.59,25.37Z"/><path class="b" d="M92.36,15.87c0-.84-.06-1.68-.11-2.53l.72.07c.26,0,.55,0,.88,0s.61,0,.87,0l.73-.07c-.06.85-.1,1.69-.12,2.53s0,1.79,0,2.87V21.4c0,1.08,0,2,0,2.87s.06,1.66.12,2.47a5.64,5.64,0,0,0-.73,0H93a5.39,5.39,0,0,0-.72,0c0-.81.09-1.63.11-2.47s0-1.79,0-2.87V18.74C92.4,17.66,92.39,16.7,92.36,15.87Z"/><path class="b" d="M109.82,26.74c-.31,0-.61,0-.89,0h-1.65a7.56,7.56,0,0,0-.83,0l-.65-1.95c-.22-.66-.45-1.33-.7-2l-1.25,0h-2.26l-1,0c-.26.66-.51,1.33-.73,2s-.42,1.31-.6,1.95a2.45,2.45,0,0,0-.46,0h-.93a3,3,0,0,0-.5,0l.62-1.4c.26-.6.55-1.28.86-2l1-2.43,1.08-2.62c.35-.89.71-1.76,1-2.62l1-2.4.37.07a2.13,2.13,0,0,0,.37,0,2.22,2.22,0,0,0,.37,0l.37-.07c.41,1.11.86,2.29,1.33,3.55s1,2.5,1.44,3.72,1,2.37,1.4,3.46S109.44,26,109.82,26.74ZM102.92,17q-.51,1.17-1,2.31c-.3.76-.59,1.54-.88,2.33h3.57c-.28-.79-.57-1.57-.85-2.33S103.23,17.79,102.92,17Z"/><path class="b" d="M1.22,41.91a2.91,2.91,0,0,0,1.36,1,2.93,2.93,0,0,0,1,.16,2.46,2.46,0,0,0,1-.2,2.29,2.29,0,0,0,.78-.53,2.33,2.33,0,0,0,.49-.8,2.67,2.67,0,0,0,.18-1,1.9,1.9,0,0,0-.41-1.27,3.45,3.45,0,0,0-1-.78A13.23,13.23,0,0,0,3.34,38,6.4,6.4,0,0,1,2,37.3a3.47,3.47,0,0,1-1-1,2.87,2.87,0,0,1-.4-1.63,3.18,3.18,0,0,1,.26-1.32,2.74,2.74,0,0,1,.75-1,3.56,3.56,0,0,1,1.19-.68,4.73,4.73,0,0,1,1.56-.24,4.47,4.47,0,0,1,1.44.2,3.56,3.56,0,0,1,1.13.61,2.89,2.89,0,0,0-.26.63,8.22,8.22,0,0,0-.21.83H6.26c-.06-.16-.14-.34-.23-.53a2.24,2.24,0,0,0-.4-.53A2.36,2.36,0,0,0,5,32.2,1.92,1.92,0,0,0,4.2,32a2.57,2.57,0,0,0-.9.15,2.26,2.26,0,0,0-.71.45,2,2,0,0,0-.47.68,2.28,2.28,0,0,0-.16.87,1.84,1.84,0,0,0,.41,1.28,3.48,3.48,0,0,0,1,.79,9.76,9.76,0,0,0,1.31.57A7.89,7.89,0,0,1,6,37.45a3.32,3.32,0,0,1,1,.93,2.54,2.54,0,0,1,.41,1.53,3.83,3.83,0,0,1-.29,1.51,3.47,3.47,0,0,1-.83,1.24A3.72,3.72,0,0,1,5,43.47a5.31,5.31,0,0,1-1.8.29,4.47,4.47,0,0,1-1.74-.29,4.4,4.4,0,0,1-1.12-.65,3.42,3.42,0,0,0,.22-.72c0-.21.08-.48.11-.82H.85A3.45,3.45,0,0,0,1.22,41.91Z"/><path class="b" d="M8.81,39.68a5.08,5.08,0,0,1,1-3.34,3.64,3.64,0,0,1,3-1.22,4.07,4.07,0,0,1,1.59.29,3.42,3.42,0,0,1,1.11.76,3,3,0,0,1,.67,1.12,4.14,4.14,0,0,1,.22,1.37c0,.12,0,.23,0,.34l0,.34-1.85,0h-3l-1.14,0a1.51,1.51,0,0,0,0,.26v.22a4,4,0,0,0,.2,1.27,3,3,0,0,0,.58,1,2.8,2.8,0,0,0,.94.68,3,3,0,0,0,1.28.25,2.94,2.94,0,0,0,.71-.09,4.77,4.77,0,0,0,.72-.26,4.3,4.3,0,0,0,.65-.39,3.49,3.49,0,0,0,.52-.49l.09.05-.1.85a4.65,4.65,0,0,1-1.29.71,4.42,4.42,0,0,1-1.61.3,5,5,0,0,1-1.71-.29A3.79,3.79,0,0,1,10,42.59a3.68,3.68,0,0,1-.87-1.29A4.32,4.32,0,0,1,8.81,39.68Zm4-4a2,2,0,0,0-1.08.29,2.57,2.57,0,0,0-.73.74,3.68,3.68,0,0,0-.43,1,4.93,4.93,0,0,0-.18,1l1.11,0c.39,0,.77,0,1.14,0s.77,0,1.16,0l1.15,0a7.06,7.06,0,0,0-.08-1,3.15,3.15,0,0,0-.31-1,2.24,2.24,0,0,0-.65-.75A1.93,1.93,0,0,0,12.81,35.68Z"/><path class="b" d="M17.74,38A2.78,2.78,0,0,1,18,36.69a2.34,2.34,0,0,1,.72-.87,3.09,3.09,0,0,1,1.06-.52,4.33,4.33,0,0,1,1.27-.18l.63,0,.77,0,.71.06h.51a9.07,9.07,0,0,0,1.4-.08,1,1,0,0,0,0,.18,1.62,1.62,0,0,0,0,.36.9.9,0,0,0,0,.18l-1-.07-.94-.06,0,0a2.19,2.19,0,0,1,.87.91A2.68,2.68,0,0,1,24.31,38a2.5,2.5,0,0,1-.88,2,3.52,3.52,0,0,1-2.35.74l-.47,0h-.48a.88.88,0,0,0-.58.22.71.71,0,0,0-.27.57.86.86,0,0,0,.22.66,1.19,1.19,0,0,0,.8.23l1,0,.95,0a4.79,4.79,0,0,1,1.36.19,2.65,2.65,0,0,1,.92.47,1.74,1.74,0,0,1,.52.67,2.14,2.14,0,0,1,.17.84,3.44,3.44,0,0,1-.24,1.23A3.1,3.1,0,0,1,24.21,47a3.8,3.8,0,0,1-1.27.84,4.81,4.81,0,0,1-1.87.33,4.69,4.69,0,0,1-2.66-.67,2.13,2.13,0,0,1-1-1.83,2.05,2.05,0,0,1,.17-.83,2.59,2.59,0,0,1,.42-.68,2.18,2.18,0,0,1,.59-.47,3.52,3.52,0,0,1,.68-.26v0a1.6,1.6,0,0,1-.82-.52,1.41,1.41,0,0,1-.27-.87,1.22,1.22,0,0,1,.11-.54A1.77,1.77,0,0,1,18.6,41a1.49,1.49,0,0,1,.4-.31,1.68,1.68,0,0,1,.44-.16v0a2.94,2.94,0,0,1-1.25-1A2.67,2.67,0,0,1,17.74,38Zm6.15,7.42a1.63,1.63,0,0,0-.6-1.45,3.69,3.69,0,0,0-2-.42,4,4,0,0,0-2,.42,1.66,1.66,0,0,0-.71,1.54,2.31,2.31,0,0,0,.2,1,1.74,1.74,0,0,0,.54.68,2.17,2.17,0,0,0,.81.38,4,4,0,0,0,1,.12,3.86,3.86,0,0,0,1-.13,3.11,3.11,0,0,0,.9-.42,2.22,2.22,0,0,0,.63-.7A2.05,2.05,0,0,0,23.89,45.37ZM23,37.86a2.43,2.43,0,0,0-.52-1.66,2,2,0,0,0-2.83.06A2.57,2.57,0,0,0,19.09,38a2.82,2.82,0,0,0,.48,1.73,1.73,1.73,0,0,0,1.48.63,1.66,1.66,0,0,0,1.45-.74,2.31,2.31,0,0,0,.34-.78A3.48,3.48,0,0,0,23,37.86Z"/><path class="b" d="M26.86,40.92c0-.62,0-1.14,0-1.57s0-.87,0-1.29,0-.85,0-1.32,0-1,0-1.44a3.49,3.49,0,0,0,.72.08,3.41,3.41,0,0,0,.71-.08c0,.69-.1,1.45-.13,2.28s0,1.67,0,2.54a4.48,4.48,0,0,0,.16,1.38,1.94,1.94,0,0,0,.38.72,2.22,2.22,0,0,0,.61.46,2,2,0,0,0,.88.18,2.16,2.16,0,0,0,1.21-.32,2,2,0,0,0,.71-.79c.09-.2.15-.37.2-.5a4,4,0,0,0,.11-.56c0-.23,0-.54.05-.94s0-.93,0-1.61V36.69c0-.26,0-.5,0-.73s0-.45,0-.66l.37.06a2.11,2.11,0,0,0,.36,0,2.23,2.23,0,0,0,.37,0l.34-.06c0,.9-.09,1.77-.1,2.61s0,1.72,0,2.66c0,.52,0,1,0,1.53s0,1,.05,1.43l-.67,0-.68,0a3.25,3.25,0,0,0,0-.33c0-.11,0-.23,0-.36V42.1h0a3,3,0,0,1-1.16,1.22,3.19,3.19,0,0,1-1.55.39A3,3,0,0,1,27.63,43,2.71,2.71,0,0,1,26.86,40.92Z"/><path class="b" d="M40.13,36.53a1.52,1.52,0,0,0-.51-.09,1.55,1.55,0,0,0-.75.19,1.78,1.78,0,0,0-.55.51,2.48,2.48,0,0,0-.35.77,3.56,3.56,0,0,0-.12.94v1.91c0,.77,0,1.37,0,1.78s0,.74.06,1q-.35,0-.69,0c-.26,0-.5,0-.73,0,0-.39,0-.92.06-1.6s0-1.51,0-2.49v-.55c0-.45,0-1,0-1.56s0-1.27-.06-2l.36.06a2.23,2.23,0,0,0,.37,0,1.94,1.94,0,0,0,.33,0l.36-.06c-.05.41-.07.74-.08,1s0,.47,0,.69l0,0c.68-1.25,1.44-1.88,2.29-1.88l.27,0a1.1,1.1,0,0,1,.28.09,1.87,1.87,0,0,0-.1.63c0,.28,0,.54,0,.77l-.12.09A.8.8,0,0,0,40.13,36.53Z"/><path class="b" d="M41.56,39.44a5,5,0,0,1,.37-2,3.88,3.88,0,0,1,1-1.34,3.8,3.8,0,0,1,1.37-.74,4.81,4.81,0,0,1,3,0,3.67,3.67,0,0,1,2.34,2.08,5,5,0,0,1,.37,2,4.93,4.93,0,0,1-.37,2,3.79,3.79,0,0,1-1,1.34,3.65,3.65,0,0,1-1.36.72,5.46,5.46,0,0,1-3,0,3.61,3.61,0,0,1-1.37-.72,3.79,3.79,0,0,1-1-1.34A4.93,4.93,0,0,1,41.56,39.44Zm1.53,0a7.18,7.18,0,0,0,.13,1.41,3.51,3.51,0,0,0,.44,1.2,2.46,2.46,0,0,0,4.23,0,3.51,3.51,0,0,0,.44-1.2,7.66,7.66,0,0,0,0-2.81,3.64,3.64,0,0,0-.44-1.21,2.46,2.46,0,0,0-4.23,0A3.64,3.64,0,0,0,43.22,38,7.15,7.15,0,0,0,43.09,39.44Z"/><path class="b" d="M52.1,42.3a2.33,2.33,0,0,0,.43.39,2.6,2.6,0,0,0,.57.31,1.92,1.92,0,0,0,.69.12,1.9,1.9,0,0,0,.63-.11,1.76,1.76,0,0,0,.54-.29,1.41,1.41,0,0,0,.37-.49,1.57,1.57,0,0,0,.14-.67,1.06,1.06,0,0,0-.31-.83,2.32,2.32,0,0,0-.75-.46,6.39,6.39,0,0,0-1-.32,4.86,4.86,0,0,1-1-.39,2.41,2.41,0,0,1-.75-.67,1.94,1.94,0,0,1-.3-1.15,2.76,2.76,0,0,1,.19-1.05,2.28,2.28,0,0,1,.55-.82,2.68,2.68,0,0,1,.9-.55,3.6,3.6,0,0,1,1.23-.2,2.93,2.93,0,0,1,1.09.18l.84.31a4,4,0,0,0-.26.64c-.08.26-.13.45-.16.59h-.21A1.62,1.62,0,0,0,55,36.1a1.52,1.52,0,0,0-1-.33,1.88,1.88,0,0,0-.52.08,1.54,1.54,0,0,0-.47.26,1.6,1.6,0,0,0-.35.45,1.53,1.53,0,0,0-.14.66,1.17,1.17,0,0,0,.31.86,2.2,2.2,0,0,0,.75.48,9.75,9.75,0,0,0,1,.3,4.31,4.31,0,0,1,1,.37,2,2,0,0,1,.75.65A1.82,1.82,0,0,1,56.65,41a2.49,2.49,0,0,1-.22,1,2.73,2.73,0,0,1-.62.87,2.9,2.9,0,0,1-1,.61,3.58,3.58,0,0,1-1.3.22,4.64,4.64,0,0,1-1.34-.16,3.83,3.83,0,0,1-.9-.36,5.2,5.2,0,0,0,.22-.62,2.59,2.59,0,0,0,.11-.65h.21A1.35,1.35,0,0,0,52.1,42.3Z"/><path class="b" d="M161.94,34.17l-12.73-.55c-1.07,0-2.1-.08-3.17-.09a5.76,5.76,0,0,1-2-.36,3.86,3.86,0,0,1-1.79-1.52,6.68,6.68,0,0,1-.76-1.82l-.43-1.53a22.91,22.91,0,0,0-1-2.85,19,19,0,0,0-3.05-5,15.9,15.9,0,0,0-4.42-3.59,21.79,21.79,0,0,0-11.27-2.34,2.27,2.27,0,1,1-.16-4.53h.16a30.81,30.81,0,0,1,6.78.92,22.19,22.19,0,0,1,6.41,2.72,19.45,19.45,0,0,1,5.14,4.72,22.49,22.49,0,0,1,3.2,6,28.73,28.73,0,0,1,.93,3.22l.33,1.56a4.59,4.59,0,0,0,.38,1.14,1.22,1.22,0,0,0,.56.56,3.2,3.2,0,0,0,1.11.25c1.06.07,2.15.18,3.2.29l12.69,1.34a.72.72,0,0,1-.11,1.43Z"/><path class="b" d="M83.17,31.83l12.73.55c1.07,0,2.1.08,3.16.09a5.81,5.81,0,0,1,2,.36,3.86,3.86,0,0,1,1.79,1.52,7,7,0,0,1,.76,1.82L104,37.7a26.68,26.68,0,0,0,1,2.85,19.59,19.59,0,0,0,3,5,15.94,15.94,0,0,0,4.43,3.59,21.79,21.79,0,0,0,11.27,2.34,2.25,2.25,0,0,1,2.34,2.18A2.28,2.28,0,0,1,123.94,56h-.15A30.81,30.81,0,0,1,117,55.1a22,22,0,0,1-6.41-2.72,19.29,19.29,0,0,1-5.14-4.72,22.21,22.21,0,0,1-3.2-6,28.73,28.73,0,0,1-.93-3.22L101,36.84a4.59,4.59,0,0,0-.38-1.14,1.32,1.32,0,0,0-.56-.56,3.2,3.2,0,0,0-1.12-.25c-1.06-.07-2.14-.18-3.19-.29L83.06,33.26a.72.72,0,0,1,.1-1.43Z"/><path class="b" d="M121.08,22.06a13.5,13.5,0,0,1,6.5,1.57,10.24,10.24,0,0,1,2.8,2.23,10.48,10.48,0,0,1,1.87,3.2c.1.29.2.59.29.89s.15.6.22.9.11.6.16.91.08.65.09,1a9.46,9.46,0,0,1-.72,4A11.49,11.49,0,0,1,130,40.21a12.71,12.71,0,0,1-1.49,1.36c-.27.21-.54.41-.83.6l-.44.29-.24.14a2.32,2.32,0,0,1-.32.16,3.06,3.06,0,0,1-2.28-5.69c-.05,0,0,0,0,0l.12,0,.26-.09c.18-.06.37-.14.55-.22a7.21,7.21,0,0,0,1.06-.57,6.45,6.45,0,0,0,1.71-1.53,5.18,5.18,0,0,0,.94-2.09,6.17,6.17,0,0,0,.1-.62c0-.21,0-.45,0-.68s0-.45,0-.68l-.07-.67a7.73,7.73,0,0,0-.84-2.55,8,8,0,0,0-1.79-2.17,12.25,12.25,0,0,0-5.48-2.57h0a.27.27,0,0,1-.21-.32A.29.29,0,0,1,121.08,22.06Z"/><path class="b" d="M123.78,43.42a13.49,13.49,0,0,1-6.5-1.56,10.32,10.32,0,0,1-2.8-2.24,10.48,10.48,0,0,1-1.87-3.2c-.1-.29-.2-.59-.29-.89s-.15-.59-.22-.9-.11-.6-.16-.91-.08-.65-.09-1a9.46,9.46,0,0,1,.72-4,11.62,11.62,0,0,1,2.26-3.43,14.74,14.74,0,0,1,1.49-1.36c.27-.21.54-.41.83-.6l.44-.29.24-.14.32-.16a3.06,3.06,0,0,1,2.28,5.69s0,0-.05,0l-.12,0-.26.08-.55.22a9.78,9.78,0,0,0-1.06.57,6.66,6.66,0,0,0-1.71,1.54,5.11,5.11,0,0,0-.94,2.09,5.55,5.55,0,0,0-.1.61c0,.22,0,.45,0,.68s0,.45,0,.68l.07.67a7.86,7.86,0,0,0,.84,2.56,8.16,8.16,0,0,0,1.79,2.17,12.36,12.36,0,0,0,5.48,2.57h0a.27.27,0,0,1,.21.32A.27.27,0,0,1,123.78,43.42Z"/></svg>