<svg xmlns="http://www.w3.org/2000/svg" width="112" height="66" viewBox="0 0 112 66"><defs><style>.a{fill:none;}.b{fill:#bbb;}</style></defs><title>seguros-</title><rect class="a" width="112" height="66"/><path class="b" d="M14.47,20.38C6,20.38,0,25.45,0,32.71c0,7,5.77,11.92,14,11.92,8.78,0,14.68-4.93,14.68-12.27C28.72,25.19,23,20.38,14.47,20.38Zm-.08,18.55c-3.67,0-6.13-2.56-6.13-6.37s2.45-6.48,6.1-6.48,6.09,2.65,6.09,6.44S18.07,38.93,14.39,38.93Z"/><path class="b" d="M52.64,40.14c-.32-1-.68-2.13-1-3.13A7.55,7.55,0,0,0,49,33.26a6.34,6.34,0,0,0,3.84-5.51A6,6,0,0,0,50,22.44c-2-1.29-4.87-1.87-9.24-1.87a71.38,71.38,0,0,0-8.78.5l-.55.08V44.24h7.78V35.77h1c2.2,0,3,.44,3.78,2.91a24.89,24.89,0,0,0,2,5.26l.18.3h8.15l-.56-1A24.8,24.8,0,0,1,52.64,40.14ZM45,28.19c0,1.41-1.53,2.25-4.08,2.25H39.17V26.12c.45,0,1.15-.07,2.26-.07C43.07,26.05,45,26.42,45,28.19Z"/><path class="b" d="M73.85,31.45A5.18,5.18,0,0,0,77,26.84c0-2.32-1.51-4.26-4.05-5.19-2-.8-4.19-1.08-8.22-1.08a68.37,68.37,0,0,0-8.43.5l-.54.09V44l.55.08a56.1,56.1,0,0,0,7.11.37c5.34,0,8.88-.63,11.13-2A6.43,6.43,0,0,0,77.9,37,5.94,5.94,0,0,0,73.85,31.45Zm-10.3,3.17H65c2.15,0,4.71.36,4.71,2.12,0,2-2.71,2.31-4.33,2.31-.76,0-1.33,0-1.8,0Zm1.19-5.3H63.55V26C64,26,64.64,26,65.61,26c1.59,0,3.48.28,3.48,1.59C69.09,29.09,66.37,29.32,64.74,29.32Z"/><rect class="b" x="80.6" y="20.77" width="7.85" height="23.47"/><path class="b" d="M104.25,29.56c-3.24-.9-4.56-1.35-4.56-2.14s1.22-1.19,3-1.19a16.67,16.67,0,0,1,5.92,1.11l.61.23,1.94-5.7-.57-.22a21.43,21.43,0,0,0-7.79-1.27c-6.64,0-11.1,3-11.1,7.48,0,3.58,2.73,6,8.34,7.39,3.47.86,3.94,1.5,3.94,2,0,1.34-2.51,1.45-3.28,1.45a17.78,17.78,0,0,1-7-1.51l-.66-.29-1.76,5.89.5.24a22.38,22.38,0,0,0,8.39,1.58c8.71,0,11.82-4,11.82-7.67S109.61,31.06,104.25,29.56Z"/></svg>