<svg xmlns="http://www.w3.org/2000/svg" width="125" height="66" viewBox="0 0 125 66"><rect width="125" height="66" style="fill:none"/><path d="M11.5,40.207H7.354l2.2-7.278ZM5.214,48.359l1.41-4.83H12.2l1.321,4.83h5.169l-5.139-18.34A1.915,1.915,0,0,0,11.5,28.434H4.184v1.7H4.8c.758,0,1.173.3,1.173.892A5.191,5.191,0,0,1,5.6,32.646L.454,48.359Z" style="fill:#bbb"/><path d="M25.043,48.359v-18.4A1.369,1.369,0,0,0,23.6,28.434H19.133v1.7h.3c.765,0,1.086.33,1.086,1.108V48.359Z" style="fill:#bbb"/><path d="M33.044,48.359v-18.4A1.37,1.37,0,0,0,31.6,28.434H27.132v1.7h.3c.765,0,1.086.33,1.086,1.108V48.359Z" style="fill:#bbb"/><path d="M41.044,30.245c0-1.32-.943-2.113-2.571-2.113-1.6,0-2.575.793-2.575,2.113s.971,2.114,2.575,2.114C40.1,32.359,41.044,31.566,41.044,30.245Zm0,18.114V34.8a1.381,1.381,0,0,0-1.453-1.539H35.168v1.811h.263c.764,0,1.084.359,1.084,1.142V48.359Z" style="fill:#bbb"/><path d="M51.258,41.222V44.1a3.786,3.786,0,0,1-2.529,1.278c-.835,0-1.132-.414-1.132-1.514s.236-1.6,1.071-1.929A11.666,11.666,0,0,1,51.258,41.222ZM45.1,37.745a10.8,10.8,0,0,1,4.49-1.16c1.226,0,1.666.448,1.666,1.754v.327c-1.854.3-2.435.415-3.482.655a10.018,10.018,0,0,0-1.707.565c-1.831.742-2.7,2.2-2.7,4.429,0,2.826,1.188,4.194,3.655,4.194a6.38,6.38,0,0,0,2.434-.476A8.6,8.6,0,0,0,51.4,46.745v.209A1.245,1.245,0,0,0,52.8,48.359h4.242v-1.7h-.209c-.791,0-1.084-.329-1.084-1.216V38.367c0-3.792-1.293-5.1-5.014-5.1a15.318,15.318,0,0,0-3.519.42,11.944,11.944,0,0,0-3.108,1.194Z" style="fill:#bbb"/><path d="M64.029,48.359V38.221a3.5,3.5,0,0,1,2.637-1.259c1.038,0,1.287.392,1.287,1.892v9.505h4.529V38.094c0-2.382-.179-3.137-.935-3.953a3.654,3.654,0,0,0-2.825-1.057c-1.831,0-3.122.595-4.869,2.293V34.76c0-.987-.466-1.5-1.4-1.5h-4.3v1.811h.262c.765,0,1.085.359,1.085,1.142V48.359Z" style="fill:#bbb"/><path d="M86.433,45.31h-6.4l6.107-8.7V33.566h-9.67a1.393,1.393,0,0,0-1.6,1.6v2.7h1.811V37.6c0-.685.353-1.014,1.084-1.014h3.294l-6.189,8.781v2.993h11.56Z" style="fill:#bbb"/><path d="M110.961,47.425V30.806c0-1.326-.429-1.768-1.712-1.768h-3.741v1.811h.615a.574.574,0,0,1,.39.208,1.211,1.211,0,0,1,.221.859V47.425Zm2.113,0H117.3V34.844c0-1.269-.462-1.773-1.736-1.773h-2.491Zm-8.151,0V33.071h-2.5c-1.235,0-1.726.5-1.726,1.773V47.425Zm16.6-8.439c0,7.523-5.368,13-12.678,13-7.345,0-12.68-5.472-12.68-13,0-7.5,5.335-12.967,12.68-12.967C116.159,26.019,121.527,31.49,121.527,38.986Zm3.019,0c0-9.156-6.7-15.986-15.684-15.986S93.15,29.83,93.15,38.986C93.15,48.17,99.881,55,108.862,55S124.546,48.17,124.546,38.986Z" style="fill:#bbb"/></svg>