<svg xmlns="http://www.w3.org/2000/svg" width="171" height="66" viewBox="0 0 171 66"><defs><style>.a{fill:none;}.b{fill:#bbb;fill-rule:evenodd;}</style></defs><title>seguros-</title><rect class="a" width="171" height="66"/><path class="b" d="M9.9,29.21a9.9,9.9,0,1,0,9.89,9.89A9.89,9.89,0,0,0,9.9,29.21Zm0,18.85a9,9,0,1,1,9-9A9,9,0,0,1,9.9,48.06Z"/><path class="b" d="M11.93,35.49a.59.59,0,0,1,.37.56.61.61,0,0,1-.11.35l-2,3.48a.32.32,0,0,1-.28.17.3.3,0,0,1-.27-.17l-2-3.48a.61.61,0,0,1,.24-.9l0,0a6.06,6.06,0,0,1,2-.35,5.87,5.87,0,0,1,2,.36h0M6,36.63a.48.48,0,0,1,.55,0,.47.47,0,0,1,.2.22l1.63,2.84a.24.24,0,0,1-.22.38H4.86a.48.48,0,0,1-.53-.53v-.05A4.85,4.85,0,0,1,6,36.64Zm7.83,0a.48.48,0,0,0-.55,0,.47.47,0,0,0-.2.22l-1.63,2.84a.24.24,0,0,0,.22.38h3.28a.48.48,0,0,0,.53-.53v-.05a4.85,4.85,0,0,0-1.64-2.83ZM10.38,41v3h-1V41H4.89a1.52,1.52,0,0,1-.8-.19,1.48,1.48,0,0,1-.73-1.33c0-.08,0-.15,0-.2a6.05,6.05,0,0,1,.69-1.87A5.61,5.61,0,0,1,5.34,35.9a1.71,1.71,0,0,1,1.25-.3,1.57,1.57,0,0,1,.78-1l.19-.09a7,7,0,0,1,2.34-.41,6.74,6.74,0,0,1,2.34.42,1.79,1.79,0,0,1,1,1,1.43,1.43,0,0,1,1.18.25,6.13,6.13,0,0,1,1.35,1.59,5.81,5.81,0,0,1,.69,1.87,1.15,1.15,0,0,1,0,.2,1.46,1.46,0,0,1-.73,1.33,1.52,1.52,0,0,1-.8.19H10.38Z"/><polyline class="b" points="35.48 29 40.31 38.9 45.14 29 52.45 29 52.45 48.79 45.14 48.79 45.14 38.9 40.31 48.79 35.48 38.9 35.48 48.79 28.17 48.79 28.17 29 35.48 29"/><path class="b" d="M55.78,48.79,61.47,29H74.38l5.68,19.79h-7.3l-.94-3.25H64l-.93,3.25H55.78M67.92,32,65,42.29h5.94Z"/><path class="b" d="M97.06,29a5.77,5.77,0,0,1,0,11.54H90.69v8.24H83.38V29H97.06m-4.67,2.27c1.65,0,3.25.88,3.25,2.67a3.22,3.22,0,0,1-3.25,3.25H90.81V31.28Z"/><polyline class="b" points="105.36 29 124.78 29 124.78 32.25 112.66 32.25 112.66 37.28 124.78 37.28 124.78 40.53 112.66 40.53 112.66 48.79 105.36 48.79 105.36 29"/><polyline class="b" points="158.81 45.54 170.93 45.54 170.93 48.79 151.5 48.79 151.5 29 170.93 29 170.93 32.25 158.81 32.25 158.81 37.28 170.93 37.28 170.93 40.53 158.81 40.53 158.81 45.54"/><path class="b" d="M147.77,43.84v4.95h-7.19V44a.81.81,0,0,0,0-.16,3.25,3.25,0,0,0-3.25-3.24h-1.58v8.19h-7.43V29h14.49a4.95,4.95,0,1,1,0,9.89,5,5,0,0,1,5,4.78v.16m0-.16v0Zm-10.43-12.4c1.61,0,3.25.88,3.25,2.67a3.24,3.24,0,0,1-3.25,3.25h-1.58V31.28Z"/></svg>