<svg xmlns="http://www.w3.org/2000/svg" width="138" height="66" viewBox="0 0 138 66"><defs><style>.a{fill:none;}.b{fill:#bbb;}</style></defs><title>seguros-</title><rect class="a" width="138" height="66"/><rect class="b" x="49.84" y="41.27" width="66.57" height="0.3"/><path class="b" d="M46.71,21.34h-.09c-1.12-1.31-3.19-1.7-4.85-1.69a7.13,7.13,0,0,0-7.49,7.45,7.81,7.81,0,0,0,7.8,8,13.2,13.2,0,0,0,3.79-.54V30.48c0-1.29,0-2.68-1.24-3.19V27.2h4.17v.09a3.2,3.2,0,0,0-.15,1.22V35a3.68,3.68,0,0,0,.14,1.28,33.57,33.57,0,0,1-6.52.85c-7,0-11.09-3.94-11.1-9.64,0-6.09,4.65-9.88,11.25-9.9a19.38,19.38,0,0,1,4.28.49Z"/><path class="b" d="M55.86,29.68l-1.42,4c-.56,1.59-.76,2.41.55,2.92v.09H50v-.09c1.58-.81,2.05-2.4,2.65-4l4.54-11.8c.38-1,.9-2.22-.42-2.64v-.07l4.32,0,5.68,14.52c.63,1.61,1.13,3.2,2.69,4v.09h-5.6v-.09c1.34-.62,1.12-.94.37-2.92l-1.47-4Zm3.4-9.23-2.69,7.13h5.37Z"/><path class="b" d="M78.59,34.61a6.5,6.5,0,0,0,4.84-1.73h.07l-1.41,3.78H70.89v-.09c1.38-.5,1.22-2.59,1.21-3.88V22c0-1.3.15-3.37-1.24-3.91V18h5.21v.07c-1.39.54-1.19,2.64-1.19,3.91V34.36Z"/><path class="b" d="M88.47,34.26l3.46.34a6.68,6.68,0,0,0,5-1.67h.08l-1.23,3.7-11.37,0v-.09c1.4-.51,1.23-2.61,1.23-3.89V22c0-1.31.16-3.38-1.23-3.91V18h8.72a2.77,2.77,0,0,0,1.28-.14h.08v3.3h-.08a3.76,3.76,0,0,0-3.22-1.12,14.22,14.22,0,0,0-2.79.2v5.26h3.25a2.63,2.63,0,0,0,1.19-.17H93v3h-.09c-.43-.82-1.58-.79-2.42-.79h-2Z"/><path class="b" d="M101.68,32.94c0,1.59,0,2.73,1.42,3.6v.09H98.28v-.09c1.44-.87,1.44-2,1.44-3.59l0-11.3c0-1.58,0-2.72-1.42-3.56V18h4v0a2,2,0,0,0,.41.69l.39.57,10,13.07V21.64c0-1.59,0-2.72-1.42-3.57V18h4.8v.08c-1.42.84-1.42,2-1.42,3.57l0,15.88a7.63,7.63,0,0,1-4-3.22L101.66,22Z"/><path class="b" d="M136.57,27a9.67,9.67,0,0,1-9.43,10.08,9.46,9.46,0,0,1-9.55-9.72,9.59,9.59,0,0,1,9.6-9.85A9.33,9.33,0,0,1,136.57,27m-16,.08c0,4,2.65,8,6.72,8s6.41-3.21,6.37-7.43-2.49-8.09-6.59-8-6.55,3.25-6.5,7.53"/><path class="b" d="M17,17.07s-4-4.14-8.71,2.67S4.9,31.24,4.9,31.24s3.36,2.61,3.44,1.37-.08-10.38,7.19-13.92C15.53,18.69,18.11,17.81,17,17.07Z"/><path class="b" d="M5.59,36.54l2.25,1.07s.86.32,1,.71.14,1.4-.75.94S5.18,37.17,5.59,36.54Z"/><path class="b" d="M11.72,41.1S16,45,20.23,37.84s2.61-11.7,2.61-11.7S19.32,23.77,19.32,25s.79,10.35-6.22,14.37C13.1,39.38,10.59,40.44,11.72,41.1Z"/><path class="b" d="M19.44,18.41c.93.4,2.51,1.82,2.15,2.47L19.77,20"/><path class="b" d="M11.44,23.4s2.62-4,4.22-3.72,9.87,1.38,10,7.05c0,0-.38.25-.94-.47S17.57,22,12.26,23.8C12.26,23.8,10.91,24.16,11.44,23.4Z"/><path class="b" d="M4.44,26.21a34.61,34.61,0,0,1,1.84-4.46c.79-1.37-.61-.77-.61-.77S1.86,23,1.51,26.42s.68,3,1.15,2.23S4.26,26.67,4.44,26.21Z"/><path class="b" d="M16.83,34.57s-2.42,4-4,3.7-9.87-1.37-10-7c0,0,.38-.26.94.47S10.7,36,16,34.17C16,34.17,17.37,33.81,16.83,34.57Z"/><path class="b" d="M23.36,32.15a22,22,0,0,1-1.3,4c-.7,1.35.46.5.46.5S26.6,34.93,27,31.54s-.83-3.06-1.15-2.24C25.36,30.43,23.53,31.68,23.36,32.15Z"/><path class="b" d="M50.75,48.13s.06,0,.06.07a2.33,2.33,0,0,0,.35,1,1.26,1.26,0,0,0,1.09.59,1,1,0,0,0,1.08-1c0-.72-.14-.93-1.26-1.35a4.74,4.74,0,0,1-1.26-.75,1.64,1.64,0,0,1-.43-1.23A1.38,1.38,0,0,1,51,44.21a1.81,1.81,0,0,1,1.24-.42,3.06,3.06,0,0,1,1.15.17.15.15,0,0,0,.2,0l.12-.11a.14.14,0,0,1,.13-.05c.06,0,.07.09.08.14l.14,1.48s0,0,0,0l-.19.06s-.09,0-.12-.06a2.65,2.65,0,0,0-.53-.9,1.08,1.08,0,0,0-.87-.36.89.89,0,0,0-.91.79,1,1,0,0,0,.22.79,2.9,2.9,0,0,0,1.14.57A2.75,2.75,0,0,1,53.9,47a1.57,1.57,0,0,1,.47,1.29,1.84,1.84,0,0,1-1.89,1.91,2.55,2.55,0,0,1-1.55-.37.36.36,0,0,0-.2-.09s-.08.06-.14.14-.09.11-.15.11-.13-.05-.12-.14l.14-1.64c0-.06,0-.06.07-.06Z"/><path class="b" d="M61.09,46.73a5.17,5.17,0,0,0,.88,0,.72.72,0,0,0,.4-.27,1,1,0,0,0,.2-.54c0-.06,0-.07.07-.07l.23,0c.05,0,.08,0,.07.07s0,.6,0,.9,0,.81,0,1,0,.06-.07.07l-.21,0s0,0-.07-.07a2.24,2.24,0,0,0-.17-.44.66.66,0,0,0-.48-.3,5.1,5.1,0,0,0-.88-.06v.52c0,.47,0,1.31,0,1.46,0,.45.1.61.21.66a2,2,0,0,0,.73.08c.14,0,.51,0,.69,0a1.29,1.29,0,0,0,.66-.28,9.61,9.61,0,0,0,.88-.93s.06,0,.09,0l.14.08s0,0,0,.07l-.39,1.31a.19.19,0,0,1-.19.13l-.79,0H59.49l-.37,0c-.06,0-.08,0-.08-.1v-.18s0-.07.09-.07h.26c.39,0,.43-.07.43-.37v-2.9c0-.71,0-1.78,0-1.86,0-.28-.12-.34-.35-.34H59.1s0,0,0-.09V44a.06.06,0,0,1,.06-.06c.19,0,.49,0,1.28,0h3l.34,0s.06,0,.07,0,.32,1.3.36,1.39a.07.07,0,0,1,0,.09l-.14.06a.07.07,0,0,1-.1,0,8.88,8.88,0,0,0-1-1,1.49,1.49,0,0,0-.66-.23l-1.14,0Z"/><path class="b" d="M75,49.2c0,.13,0,.21,0,.28s-.06.11-.14.14a5.31,5.31,0,0,1-2.54.55,3.32,3.32,0,0,1-2.51-1,3.4,3.4,0,0,1-.79-2.38,2.94,2.94,0,0,1,1-2.17,3.49,3.49,0,0,1,2.45-.85,3.65,3.65,0,0,1,1.81.42c.1.06.16,0,.21,0l.09-.14c0-.06.06-.09.11-.09s.12.06.12.16L75,45.9q0,.15,0,.15l-.24.06s-.08,0-.11-.09a3.22,3.22,0,0,0-.78-1.31,1.92,1.92,0,0,0-1.37-.54,1.58,1.58,0,0,0-1.31.65,3.16,3.16,0,0,0-.69,2,3.51,3.51,0,0,0,.75,2.38,1.66,1.66,0,0,0,1.33.59,2.13,2.13,0,0,0,1-.17c.18-.09.19-.37.19-.82v-.62c0-.31-.08-.4-.3-.4h-.36s-.06,0-.06-.08v-.21s0-.06.06-.06.5,0,1.28,0,1.11,0,1.18,0,.08,0,.08.06v.22s0,.07-.06.07H75.3c-.16,0-.27.06-.27.31V49.2Z"/><path class="b" d="M80.59,44.69c0-.3-.06-.44-.24-.44h-.41s-.06,0-.06-.08V44c0-.05,0-.07.08-.07s.51,0,1.42,0,1.17,0,1.27,0,.08,0,.08.07v.23s0,.06-.07.06h-.3a.41.41,0,0,0-.46.34c0,.09,0,.68,0,1.12v.57c0,.46,0,1.56,0,1.84a1.84,1.84,0,0,0,.28,1,1.38,1.38,0,0,0,1.08.48,1.77,1.77,0,0,0,1-.38,1.81,1.81,0,0,0,.55-1.41V46.51a14.82,14.82,0,0,0-.13-1.88c0-.23-.17-.38-.32-.38h-.27s-.06,0-.06-.07V44c0-.05,0-.07.06-.07s.48,0,1.07,0,.74,0,.82,0,.09,0,.09.08v.19c0,.06,0,.09-.05.09H85.8a.33.33,0,0,0-.37.33c0,.12,0,1.31,0,1.43s0,1.64,0,2a2.34,2.34,0,0,1-.74,1.65,2.38,2.38,0,0,1-1.53.54A3.85,3.85,0,0,1,81.78,50a2,2,0,0,1-1-1.14,6.66,6.66,0,0,1-.18-2.09v-2Z"/><path class="b" d="M91.13,46.11c0-.64,0-1.2,0-1.43s-.12-.43-.24-.43h-.35s0,0,0-.06V44s0-.06,0-.06.35,0,1.29,0l1.6,0a2.2,2.2,0,0,1,1.53.57,1.34,1.34,0,0,1,.5.95,1.62,1.62,0,0,1-1.59,1.66v.06a1.08,1.08,0,0,1,.57.46c.12.14.59.91.66,1s.52.73.69.93a1.08,1.08,0,0,0,.64.19c.06,0,.07,0,.07.06V50s0,.08-.07.08-.3,0-1,0l-.83,0a7.17,7.17,0,0,1-.94-1.5c-.29-.58-.65-1.23-1.06-1.23h-.3v.45c0,.51,0,1.48,0,1.59s.08.34.21.34H93c.06,0,.07,0,.07.06V50c0,.06,0,.08-.14.08s-.23,0-1.14,0-1.11,0-1.21,0-.07,0-.07-.09v-.2s0-.06.05-.06h.26c.19,0,.34-.07.34-.28,0-.86,0-1.67,0-2.49v-.84Zm1.21.93h.35a1.52,1.52,0,0,0,1.08-2.46,1.5,1.5,0,0,0-1-.38.51.51,0,0,0-.33.07.36.36,0,0,0-.09.24Z"/><path class="b" d="M101.91,49.61A3,3,0,0,1,100.64,47a3.33,3.33,0,0,1,.81-2.15,3.06,3.06,0,0,1,2.51-1.1,3.15,3.15,0,0,1,2.12.68,3.25,3.25,0,0,1,1.18,2.59,3.13,3.13,0,0,1-.65,1.89A3.09,3.09,0,0,1,104,50.17,3.87,3.87,0,0,1,101.91,49.61Zm4-2.48c0-1.9-1.24-2.93-2-2.93a1.39,1.39,0,0,0-1.13.46,3.14,3.14,0,0,0-.77,2.11c0,2.21,1.27,3,2,3C105.62,49.77,105.9,47.84,105.9,47.13Z"/><path class="b" d="M112.52,48.13s.06,0,.06.07a2.33,2.33,0,0,0,.35,1,1.26,1.26,0,0,0,1.09.59,1,1,0,0,0,1.08-1c0-.72-.14-.93-1.26-1.35a4.9,4.9,0,0,1-1.26-.75,1.64,1.64,0,0,1-.43-1.23,1.38,1.38,0,0,1,.65-1.27,1.82,1.82,0,0,1,1.25-.42,3.1,3.1,0,0,1,1.15.17.16.16,0,0,0,.2,0l.11-.11a.15.15,0,0,1,.13-.05c.06,0,.08.09.09.14l.13,1.48s0,0,0,0l-.19.06s-.09,0-.11-.06a2.7,2.7,0,0,0-.54-.9,1.07,1.07,0,0,0-.86-.36.9.9,0,0,0-.92.79,1,1,0,0,0,.22.79,3,3,0,0,0,1.14.57,2.69,2.69,0,0,1,1.11.65,1.57,1.57,0,0,1,.48,1.29,1.84,1.84,0,0,1-1.9,1.91,2.57,2.57,0,0,1-1.55-.37.37.37,0,0,0-.19-.09c-.06,0-.09.06-.14.14s-.1.11-.16.11-.13-.05-.12-.14l.14-1.64c0-.06,0-.06.07-.06Z"/></svg>