<svg xmlns="http://www.w3.org/2000/svg" width="133" height="66" viewBox="0 0 133 66"><defs><style>.a{fill:none;}.b{fill:#bbb;fill-rule:evenodd;}</style></defs><title>seguros-</title><rect class="a" width="132.81" height="66"/><path class="b" d="M16,17.08A15.81,15.81,0,0,1,31.48,30.16H20.53l-2-4.35L16,19.87l-2.54,5.94-2.55,5.94H31.67c0,.38,0,.76,0,1.14A15.76,15.76,0,0,1,.45,35.74l10.79,0,2.2,4.28L16,45.52l2.55-5.46,2.55-5.47H.28A15.82,15.82,0,0,1,16,17.08"/><path class="b" d="M127.4,21.16a1.86,1.86,0,0,0-.19-.87,1.27,1.27,0,0,0-.64-.56,2.48,2.48,0,0,0-.7-.17q-.39,0-1,0h-1.12v3.6h1a6.59,6.59,0,0,0,1.18-.09,1.78,1.78,0,0,0,.84-.36,1.67,1.67,0,0,0,.48-.61,2.3,2.3,0,0,0,.15-.91m5.41,9.28h-4.09L125,25.53h-1.2v4.91h-3.35V17.07h5.38a12.17,12.17,0,0,1,1.94.13,4.37,4.37,0,0,1,1.53.58A3.54,3.54,0,0,1,130.43,19a3.46,3.46,0,0,1,.42,1.79,4.17,4.17,0,0,1-.69,2.49,4.88,4.88,0,0,1-1.85,1.52Zm-20-6.69a7.51,7.51,0,0,0-.24-2,4.43,4.43,0,0,0-.66-1.38,2.65,2.65,0,0,0-1-.78,2.76,2.76,0,0,0-1.13-.24,2.47,2.47,0,0,0-2.09,1,4,4,0,0,0-.67,1.38,7.28,7.28,0,0,0-.25,2.05A7.34,7.34,0,0,0,107,25.8a4.11,4.11,0,0,0,.66,1.36,2.49,2.49,0,0,0,1,.79,2.83,2.83,0,0,0,1.13.24,2.79,2.79,0,0,0,1.16-.25,2.52,2.52,0,0,0,1-.8,4.65,4.65,0,0,0,.66-1.36,7.09,7.09,0,0,0,.23-2m3.47,0a7.22,7.22,0,0,1-1.73,5.11,6.18,6.18,0,0,1-4.75,1.86,6.09,6.09,0,0,1-4.75-1.89,7.21,7.21,0,0,1-1.73-5.08,7.23,7.23,0,0,1,1.73-5.09,6.11,6.11,0,0,1,4.75-1.87,6.18,6.18,0,0,1,4.75,1.86,7.21,7.21,0,0,1,1.73,5.1m-21.6,7a6.38,6.38,0,0,1-4.78-1.82,7,7,0,0,1-1.76-5.12,7.11,7.11,0,0,1,1.77-5.06,6.24,6.24,0,0,1,4.78-1.89,12.35,12.35,0,0,1,1.44.08,10.93,10.93,0,0,1,1.22.26,9.51,9.51,0,0,1,1,.36c.36.16.65.29.87.41v3.19h-.34c-.16-.15-.37-.32-.61-.52a8.23,8.23,0,0,0-.84-.59,5.77,5.77,0,0,0-1-.49,3.51,3.51,0,0,0-1.17-.2,3.79,3.79,0,0,0-1.33.23,3.24,3.24,0,0,0-1.16.79,3.88,3.88,0,0,0-.82,1.39,6,6,0,0,0-.32,2.05,5.78,5.78,0,0,0,.33,2.1,3.9,3.9,0,0,0,.88,1.37A3,3,0,0,0,94,28a3.83,3.83,0,0,0,1.28.22A3.61,3.61,0,0,0,96.53,28a5,5,0,0,0,1-.48,6.75,6.75,0,0,0,.79-.57c.23-.19.43-.36.59-.51h.31v3.14l-.85.39a7.53,7.53,0,0,1-1,.37,10.62,10.62,0,0,1-1.18.29,9.57,9.57,0,0,1-1.51.1m-10.83-.26H80.62l-5.15-9.33v9.33H72.4V17.07h4.12l4.27,7.66V17.07h3.07ZM62.58,25.28l-1.36-4.4-1.37,4.4Zm-7.67,5.16,4.52-13.37H63.1l4.51,13.37H64.16l-.84-2.73h-4.2l-.84,2.73Zm-9.72.24a10.78,10.78,0,0,1-2.69-.3,13.47,13.47,0,0,1-2.17-.73V26.47h.31a7.79,7.79,0,0,0,2.22,1.31,6.76,6.76,0,0,0,2.35.46c.19,0,.45,0,.76-.06a3.43,3.43,0,0,0,.76-.2,1.73,1.73,0,0,0,.59-.43A1.09,1.09,0,0,0,47.17,26a2.58,2.58,0,0,0-.94-.46c-.46-.12-.95-.23-1.46-.34a12.65,12.65,0,0,1-1.45-.39,4.53,4.53,0,0,1-2.23-1.48A3.81,3.81,0,0,1,40.41,21,3.59,3.59,0,0,1,42,18a6.53,6.53,0,0,1,4-1.17,11.25,11.25,0,0,1,2.38.25,10.79,10.79,0,0,1,2.12.65v3.05h-.3a6.83,6.83,0,0,0-1.82-1.07,5.66,5.66,0,0,0-2.21-.44,4.79,4.79,0,0,0-.79.06,2.83,2.83,0,0,0-.73.24,1.62,1.62,0,0,0-.55.43,1,1,0,0,0,.14,1.44,3.47,3.47,0,0,0,1.4.55l1.3.29a13,13,0,0,1,1.34.4A4.45,4.45,0,0,1,50.32,24,3.5,3.5,0,0,1,51,26.26a3.85,3.85,0,0,1-1.57,3.21,6.82,6.82,0,0,1-4.24,1.21"/><path class="b" d="M126.87,49a11,11,0,0,1-2.7-.29,14.8,14.8,0,0,1-2.16-.74V44.75h.31a7.42,7.42,0,0,0,2.21,1.31,6.59,6.59,0,0,0,2.36.46,6.43,6.43,0,0,0,.76-.06,2.6,2.6,0,0,0,.76-.2,1.58,1.58,0,0,0,.59-.43,1,1,0,0,0,.24-.72,1,1,0,0,0-.39-.82,2.63,2.63,0,0,0-.95-.46c-.45-.12-.94-.23-1.46-.34A11.77,11.77,0,0,1,125,43.1a4.63,4.63,0,0,1-2.23-1.47,3.84,3.84,0,0,1-.67-2.32,3.59,3.59,0,0,1,1.59-3,6.51,6.51,0,0,1,4-1.16,11.94,11.94,0,0,1,2.38.24,10.48,10.48,0,0,1,2.11.65v3.06h-.29A6.59,6.59,0,0,0,130,38a5.88,5.88,0,0,0-2.21-.44,4.79,4.79,0,0,0-.79.06,3.08,3.08,0,0,0-.74.25,1.44,1.44,0,0,0-.54.42,1,1,0,0,0,.14,1.45,3.65,3.65,0,0,0,1.4.54l1.3.3a10.21,10.21,0,0,1,1.33.39A4.71,4.71,0,0,1,132,42.3a3.52,3.52,0,0,1,.67,2.25,3.86,3.86,0,0,1-1.56,3.2A6.76,6.76,0,0,1,126.87,49M116.64,42a7.35,7.35,0,0,0-.25-2,4,4,0,0,0-.66-1.38,2.51,2.51,0,0,0-1-.79,2.72,2.72,0,0,0-1.12-.24,3,3,0,0,0-1.13.22,2.73,2.73,0,0,0-1,.79,4,4,0,0,0-.67,1.38,8.53,8.53,0,0,0,0,4.1,3.93,3.93,0,0,0,.67,1.36,2.54,2.54,0,0,0,1,.8,2.73,2.73,0,0,0,2.28,0,2.58,2.58,0,0,0,1-.79,4.25,4.25,0,0,0,.66-1.37,7,7,0,0,0,.24-2m3.46,0a7.17,7.17,0,0,1-1.73,5.1,7,7,0,0,1-9.5,0A7.24,7.24,0,0,1,107.14,42a7.24,7.24,0,0,1,1.73-5.1,7,7,0,0,1,9.5,0A7.21,7.21,0,0,1,120.1,42m-19.22-2.6a1.79,1.79,0,0,0-.19-.86,1.31,1.31,0,0,0-.64-.56,2.31,2.31,0,0,0-.71-.17,8.5,8.5,0,0,0-1,0H97.26v3.6h1a6.63,6.63,0,0,0,1.19-.09,1.65,1.65,0,0,0,.83-.36,1.52,1.52,0,0,0,.48-.6,2.17,2.17,0,0,0,.16-.92m5.41,9.28h-4.1l-3.72-4.9H97.26v4.9H93.92V35.35H99.3a11.09,11.09,0,0,1,1.94.14,4.07,4.07,0,0,1,1.52.58,3.36,3.36,0,0,1,1.15,1.16,3.46,3.46,0,0,1,.42,1.79,4.13,4.13,0,0,1-.69,2.49A4.79,4.79,0,0,1,101.79,43l4.5,5.69ZM85.09,49a6.05,6.05,0,0,1-4.15-1.3,4.89,4.89,0,0,1-1.45-3.81V35.35h3.36v8.34a3.41,3.41,0,0,0,.53,2.08,2,2,0,0,0,1.71.68,2.07,2.07,0,0,0,1.7-.66,3.27,3.27,0,0,0,.54-2.1V35.35h3.36v8.53a5,5,0,0,1-1.41,3.8A5.93,5.93,0,0,1,85.09,49M76.5,48a16.92,16.92,0,0,1-2.29.7,11.54,11.54,0,0,1-2.77.34,7,7,0,1,1,.1-13.91,9.72,9.72,0,0,1,2.73.32,14.57,14.57,0,0,1,2.17.86v3.14h-.3l-.7-.54a7,7,0,0,0-.88-.58,5.72,5.72,0,0,0-1.17-.5A4.5,4.5,0,0,0,72,37.58a4.35,4.35,0,0,0-1.57.27,3.54,3.54,0,0,0-1.27.83,3.88,3.88,0,0,0-.84,1.37A5.3,5.3,0,0,0,68,42a4.56,4.56,0,0,0,1.18,3.46,4.47,4.47,0,0,0,3.21,1.11h.42l.43,0V43.88h-2.6v-2.5H76.5V48Zm-23.14.76V35.35h9V37.9H56.7v2.34H62V42.8H56.7v3.37h5.7v2.55ZM45.19,49a10.81,10.81,0,0,1-2.69-.29,14.53,14.53,0,0,1-2.17-.74V44.75h.31a7.35,7.35,0,0,0,2.22,1.31,6.54,6.54,0,0,0,2.35.46,6.28,6.28,0,0,0,.76-.06,2.6,2.6,0,0,0,.76-.2,1.5,1.5,0,0,0,.59-.43,1,1,0,0,0,.25-.72,1,1,0,0,0-.4-.82,2.58,2.58,0,0,0-.94-.46c-.46-.12-.95-.23-1.46-.34a10.88,10.88,0,0,1-1.45-.39,4.58,4.58,0,0,1-2.23-1.47,3.84,3.84,0,0,1-.68-2.32,3.59,3.59,0,0,1,1.59-3,6.53,6.53,0,0,1,4-1.16,11.94,11.94,0,0,1,2.38.24,10.79,10.79,0,0,1,2.12.65v3.06h-.3A6.59,6.59,0,0,0,48.35,38a5.85,5.85,0,0,0-2.21-.44,4.79,4.79,0,0,0-.79.06,2.88,2.88,0,0,0-.73.25,1.47,1.47,0,0,0-.55.42,1,1,0,0,0-.23.63,1,1,0,0,0,.37.82,3.65,3.65,0,0,0,1.4.54l1.3.3a10.8,10.8,0,0,1,1.34.39,4.61,4.61,0,0,1,2.07,1.35A3.53,3.53,0,0,1,51,44.55a3.85,3.85,0,0,1-1.57,3.2A6.76,6.76,0,0,1,45.19,49"/></svg>