<svg xmlns="http://www.w3.org/2000/svg" width="126.234" height="66" viewBox="0 0 126.234 66"><defs><style>.a{fill:#bbb;}</style></defs><path class="a" d="M74.814,17.97c3.325.094,6.566-.124,9.8.121,2.722.207,4.713,1.626,5.344,3.807a6.9,6.9,0,0,1-1.046,6.283,10.565,10.565,0,0,1-2.384,2.354c-.143.1-.28.213-.449.342l4.554,10H84.252q-1.584-3.879-3.188-7.8H78.35c-.36,2.592-.721,5.19-1.084,7.811H71.608Zm7.794,10.912a5.706,5.706,0,0,0,1.816-3.818,2.444,2.444,0,0,0-1.507-2.57,4.932,4.932,0,0,0-3.037.016c-.311,2.133-.618,4.232-.93,6.372Z"/><path class="a" d="M126.234,40.892h-5.983c-.435-1.945-.869-3.881-1.305-5.831h-7.565c-.992,1.931-2,3.885-2.992,5.822h-5.5q6.1-11.5,12.126-22.881h5.758C122.589,25.609,124.405,33.221,126.234,40.892Zm-9.644-16.45-3.231,6.523h4.624Z"/><path class="a" d="M38.571,37.214q1.335-9.582,2.664-19.132a.7.7,0,0,1,.5-.089c2.386,0,4.772-.035,7.157.007a8.485,8.485,0,0,1,5.7,1.891A8.921,8.921,0,0,1,55.7,21.18a7.768,7.768,0,0,1-.715,8.406A8.444,8.444,0,0,1,49.4,32.723a16.685,16.685,0,0,1-4.521.1c-.385,2.7-.765,5.367-1.149,8.062H38.08Zm6.862-8.683a8.555,8.555,0,0,0,2.125.109c2.574-.227,3.494-2.009,3.2-4.167a2.327,2.327,0,0,0-1.391-1.9,4.453,4.453,0,0,0-3.062-.086Z"/><path class="a" d="M56.159,40.891c1.071-7.656,2.132-15.242,3.2-22.865H72.529c-.182,1.408-.362,2.794-.547,4.224H64.476c-.241,1.642-.477,3.249-.721,4.914h7.371c-.2,1.444-.384,2.829-.579,4.258H63.168L62.417,36.6H71.1l-.562,4.287Z"/><path class="a" d="M94.854,40.884c.867-6.209,1.73-12.378,2.6-18.6H91.326c.2-1.45.389-2.846.582-4.266h17.841c-.195,1.415-.385,2.8-.583,4.235h-6.043c-.875,6.233-1.743,12.421-2.615,18.631Z"/><path class="a" d="M35.173,40.913H30.712l-3.1-5.707L31,29.958c1.71,3.174,3.39,6.292,5.069,9.41.243.483.486.965.777,1.545Z"/><path class="a" d="M85.279,44.728a5.889,5.889,0,0,1,5.962,6.527,6.854,6.854,0,0,1-3.452,5.854c-2.868,1.623-7,1.1-8.65-2.307C77.279,50.959,79.3,44.9,85.279,44.728ZM80,51.754c-.038,2.462,1.078,4.275,3.01,4.888a5.059,5.059,0,0,0,5.671-2.021A6.562,6.562,0,0,0,89.723,50.3a4.341,4.341,0,0,0-2.837-4.137A4.756,4.756,0,0,0,81.713,47.3,5.938,5.938,0,0,0,80,51.754Z"/><path class="a" d="M53.709,51.057c-.279,2.051-.554,4.071-.837,6.142-2.458.919-4.908,1.238-7.314-.089a6.29,6.29,0,0,1-2.6-7.549,6.861,6.861,0,0,1,7.388-4.794,7.264,7.264,0,0,1,3.854,1.42l-.817,1.079a5.96,5.96,0,0,0-3.44-1.332,5.794,5.794,0,0,0-4.768,9.156,5.03,5.03,0,0,0,5.013,1.652,3.5,3.5,0,0,0,1.444-.49c.19-1.365.382-2.751.581-4.186h-2.4l.47-1.009Z"/><path class="a" d="M69.575,45.043c1.412,0,2.767-.066,4.113.02a2.863,2.863,0,0,1,2.73,1.726,3.638,3.638,0,0,1-.521,3.678,6.536,6.536,0,0,1-1.771,1.527c.9,1.893,1.8,3.776,2.712,5.7H75.251L72.805,52.5H69.943c-.244,1.73-.485,3.447-.73,5.186H67.806C68.4,53.471,68.982,49.277,69.575,45.043Zm.508,6.381c1.05,0,2.04,0,3.03,0a.528.528,0,0,0,.247-.091,3.8,3.8,0,0,0,1.775-2.176,2.17,2.17,0,0,0-1.208-2.83,7.374,7.374,0,0,0-3.094-.1C70.582,47.968,70.337,49.664,70.083,51.424Z"/><path class="a" d="M57,45.037h1.34a13.072,13.072,0,0,1-.233,2.007c-.281,2.116-.6,4.226-.886,6.341a3,3,0,0,0,3.374,3.465,3.792,3.792,0,0,0,3.57-3.665c.354-2.59.725-5.178,1.091-7.766.017-.122.058-.241.092-.38H66.67a7.951,7.951,0,0,1-.2,1.783c-.306,2.238-.6,4.478-.966,6.707a4.944,4.944,0,0,1-4.05,4.339,5.7,5.7,0,0,1-2.8-.12,4.1,4.1,0,0,1-2.805-4.839c.357-2.464.7-4.93,1.054-7.394C56.926,45.359,56.964,45.205,57,45.037Z"/><path class="a" d="M41.4,46.121H36.349c-.222,1.526-.438,3.011-.662,4.553h4.9l-.117,1.033h-4.91c-.24,1.635-.474,3.225-.715,4.869H40.6l-.121,1.106H33.3c.588-4.2,1.174-8.4,1.766-12.629h6.463Z"/><path class="a" d="M92.14,57.137,92.779,56a5.626,5.626,0,0,0,3.116.874,4.455,4.455,0,0,0,1.862-.407,2.054,2.054,0,0,0,.607-3.317,6.022,6.022,0,0,0-1.8-1.216,7.725,7.725,0,0,1-2.117-1.418,3.165,3.165,0,0,1,.563-5.006c2.044-1.214,4.144-.913,6.264,0a4.113,4.113,0,0,1-.552,1.119,5.807,5.807,0,0,0-3.113-.783,3.974,3.974,0,0,0-1.639.415,1.972,1.972,0,0,0-.562,3.151,6.019,6.019,0,0,0,1.709,1.166,10.231,10.231,0,0,1,2.027,1.273,3.271,3.271,0,0,1-.564,5.431C96.464,58.382,94.323,58.081,92.14,57.137Z"/><path class="a" d="M25.206,50.535a3.278,3.278,0,0,1-.846-3,3.731,3.731,0,0,1,3.377-2.725,9.136,9.136,0,0,1,3.059.2,5.433,5.433,0,0,1,1.285.576l-.535,1.066a5.915,5.915,0,0,0-3.045-.8,4.62,4.62,0,0,0-1.358.246,2.01,2.01,0,0,0-.665,3.583A9.287,9.287,0,0,0,28.2,50.733a9.929,9.929,0,0,1,1.581.986,3.274,3.274,0,0,1-.512,5.617,7.073,7.073,0,0,1-6.325-.207l.611-1.12a6.393,6.393,0,0,0,2.405.834,4.845,4.845,0,0,0,2.408-.294A2.081,2.081,0,0,0,29,52.986,6.061,6.061,0,0,0,27.486,52,10.459,10.459,0,0,1,25.206,50.535Z"/><path class="a" d="M6.255,36.608h8.673l-.545,4.276H0q1.584-11.442,3.167-22.87H16.372l-.553,4.238H8.31l-.714,4.9H14.97l-.588,4.291H7C6.751,33.156,6.509,34.837,6.255,36.608Z"/><path class="a" d="M31.529,18.035h6.063L13.4,55.511c0-2.955,0-5.762,0-8.569a1.057,1.057,0,0,1,.249-.576q5.6-8.894,11.213-17.783,3.2-5.077,6.4-10.159C31.343,18.291,31.439,18.164,31.529,18.035Z"/><path class="a" d="M27.293,22.98,23.9,28.356,18.3,18.029h6.36Z"/></svg>