<svg xmlns="http://www.w3.org/2000/svg" width="60" height="28" viewBox="0 0 60 28"><defs><style>.a{fill:#999;}.b{fill:#fff;}</style></defs><title>logo</title><circle class="a" cx="51.055" cy="8.757" r="8.757"/><path class="a" d="M13.827,15.8a.762.762,0,0,1-.013-.078c0-.047,0-.094,0-.14V2.921a1.942,1.942,0,0,1,.051-.462,1.522,1.522,0,0,1,1.249-1.092,3.252,3.252,0,0,1,.341-.022c1.4,0,2.8,0,4.2,0a9.811,9.811,0,0,1,2.085.212,6.428,6.428,0,0,1,1.621.574,4.747,4.747,0,0,1,1.96,1.88,7.029,7.029,0,0,1,.74,1.922,10.251,10.251,0,0,1,.225,1.458,13.006,13.006,0,0,1,.046,1.554,10.077,10.077,0,0,1-.392,2.528,6.709,6.709,0,0,1-.85,1.791,5.382,5.382,0,0,1-2.07,1.816,5.872,5.872,0,0,1-1.967.6,16.011,16.011,0,0,1-2.017.121q-2.514,0-5.027,0ZM16.782,3.874c-.018.13-.03,8.964-.014,9.238a.587.587,0,0,0,.014.076.5.5,0,0,0,.188.015q1.089,0,2.178,0a6.825,6.825,0,0,0,1.069-.07,4.282,4.282,0,0,0,1.06-.295,2.856,2.856,0,0,0,1.6-1.67,5.192,5.192,0,0,0,.2-.7,8.739,8.739,0,0,0,.175-1.745,11.033,11.033,0,0,0-.044-1.149,7.044,7.044,0,0,0-.2-1.163,4.11,4.11,0,0,0-.475-1.144,2.769,2.769,0,0,0-1.62-1.231,4.334,4.334,0,0,0-1.2-.172c-.939-.007-1.877,0-2.816,0A1.254,1.254,0,0,0,16.782,3.874Z"/><path class="a" d="M31.066,15.8H28.059c-.006-.038-.014-.073-.017-.107s0-.083,0-.125V3.014a2.436,2.436,0,0,1,.046-.525,1.52,1.52,0,0,1,1.257-1.122,2.988,2.988,0,0,1,.341-.022q2.481,0,4.963,0a6.712,6.712,0,0,1,1.739.211,3.891,3.891,0,0,1,1.456.713A3.662,3.662,0,0,1,39.01,3.945a5.677,5.677,0,0,1,.283,1.365,7.747,7.747,0,0,1,.024,1.01,5.607,5.607,0,0,1-.364,1.868,4.492,4.492,0,0,1-.268.56,3.376,3.376,0,0,1-1.648,1.479,4.638,4.638,0,0,1-1.1.318,7.051,7.051,0,0,1-1.161.088H31.289l-.191,0a.935.935,0,0,0-.018.1c0,.051,0,.1,0,.155v4.7A.784.784,0,0,1,31.066,15.8Zm.024-7.782a.512.512,0,0,0,.189.015h2.738A4.5,4.5,0,0,0,34.653,8a2.446,2.446,0,0,0,.688-.187,1.534,1.534,0,0,0,.858-.952c.019-.059.036-.119.05-.18A3.388,3.388,0,0,0,36.3,5.5a2.246,2.246,0,0,0-.275-.836,1.19,1.19,0,0,0-.5-.5,3.355,3.355,0,0,0-.368-.164,2.591,2.591,0,0,0-.9-.144c-1,0-1.992,0-2.988,0a.722.722,0,0,0-.093,0,.638.638,0,0,0-.093.026V7.937A.575.575,0,0,0,31.09,8.015Z"/><path class="a" d="M3.91,10.654c0,.073,0,.139,0,.206q0,2.364,0,4.728a.768.768,0,0,1-.012.206c-.03,0-.054.008-.079.008H.889a.514.514,0,0,1-.018-.084c0-.047,0-.093,0-.14V2.965a2.024,2.024,0,0,1,.052-.509A1.524,1.524,0,0,1,2.157,1.368a3.275,3.275,0,0,1,.357-.023q2.481,0,4.963,0a6.67,6.67,0,0,1,1.739.212,4.3,4.3,0,0,1,.8.3A3.579,3.579,0,0,1,11.8,3.844a5.188,5.188,0,0,1,.291,1.19,7.68,7.68,0,0,1,.054,1.3,5.594,5.594,0,0,1-.394,1.924,4.316,4.316,0,0,1-.458.828,3.366,3.366,0,0,1-1.487,1.162,4.771,4.771,0,0,1-1.26.325,8.164,8.164,0,0,1-1.024.057q-1.7,0-3.408,0A.5.5,0,0,0,3.91,10.654Zm.01-2.639a.48.48,0,0,0,.187.015H6.814A4.5,4.5,0,0,0,7.45,8a2.732,2.732,0,0,0,.618-.149,1.545,1.545,0,0,0,.98-1.069c.01-.035.02-.069.028-.1a3.4,3.4,0,0,0,.052-1.159,2.223,2.223,0,0,0-.3-.892,1.181,1.181,0,0,0-.436-.432A2.514,2.514,0,0,0,8,4.01a2.821,2.821,0,0,0-.933-.148q-1.353,0-2.707,0c-.109,0-.218,0-.327,0-.035,0-.069.009-.1.013a.188.188,0,0,0-.017.051q0,2.013,0,4.028A.385.385,0,0,0,3.92,8.015Z"/><path class="a" d="M20.287,22.183a6.054,6.054,0,0,0,0-.75c0-.258,0-.517,0-.775s-.007-.5.006-.752a.633.633,0,0,1,.349-.006c0,.044.011.09.012.137.019,1.136.009,2.561-.018,2.722a.739.739,0,0,1-.383.01c-.243-.381-.492-.771-.742-1.16a12.709,12.709,0,0,1-.72-1.221.368.368,0,0,0-.015.172c0,.048.006.1.008.144s0,.1,0,.144,0,.108,0,.162v1.462c0,.048,0,.1,0,.144s0,.095-.007.147a.665.665,0,0,1-.343.008c0-.041-.01-.076-.011-.111-.018-.83-.008-2.581.016-2.765a.449.449,0,0,1,.19-.016c.066,0,.132,0,.21,0,.168.245.325.5.488.751s.336.514.5.775S20.135,21.923,20.287,22.183Z"/><path class="a" d="M.185,22.771C.158,22.6.148,21.056.167,20.058c0-.041.007-.081.012-.134.1-.014.193-.033.288-.04a4.975,4.975,0,0,1,.828-.008,1.747,1.747,0,0,1,.59.151,1.192,1.192,0,0,1,.685.873,1.788,1.788,0,0,1-.059.959,1.261,1.261,0,0,1-.768.807,1.833,1.833,0,0,1-.6.132c-.27.009-.54,0-.811,0A1.048,1.048,0,0,1,.185,22.771Zm.384-.3a.383.383,0,0,0,.075.022,2.2,2.2,0,0,0,.682-.03,1.016,1.016,0,0,0,.832-.822A1.649,1.649,0,0,0,2.173,21a.926.926,0,0,0-.674-.769,1.97,1.97,0,0,0-.857-.045.363.363,0,0,0-.066.021C.552,20.342.546,22.22.569,22.476Z"/><path class="a" d="M5.8,25.086a4.474,4.474,0,0,1,1.142-.043,1.623,1.623,0,0,1,.554.149,1.188,1.188,0,0,1,.674.842,1.8,1.8,0,0,1-.032.928,1.275,1.275,0,0,1-.831.883,1.861,1.861,0,0,1-.6.119c-.252,0-.5,0-.757-.006a1.228,1.228,0,0,1-.158-.023.466.466,0,0,1-.016-.08q0-1.353,0-2.706A.237.237,0,0,1,5.8,25.086Zm.373,2.543a.115.115,0,0,0,.029.02.159.159,0,0,0,.052.013,2.252,2.252,0,0,0,.7-.036,1.016,1.016,0,0,0,.816-.84,1.579,1.579,0,0,0,.012-.609.933.933,0,0,0-.665-.778,1.932,1.932,0,0,0-.875-.048.271.271,0,0,0-.064.023C6.156,25.513,6.153,27.45,6.174,27.629Z"/><path class="a" d="M1.6,26.086c0-.41,0-.792,0-1.185a1.357,1.357,0,0,1,.377,0c0,.04.012.074.012.109q0,1.457,0,2.92a.849.849,0,0,1-.318.006c-.008-.048-.019-.094-.024-.14s-.006-.095-.009-.14c-.046-.02-.058.014-.073.035A.857.857,0,0,1,.2,27.623a1.01,1.01,0,0,1-.142-.289,1.383,1.383,0,0,1,.022-.885.947.947,0,0,1,.461-.532.88.88,0,0,1,.989.125A.47.47,0,0,0,1.6,26.086Zm0,.8h0a2.282,2.282,0,0,0,0-.234.551.551,0,0,0-.38-.5.569.569,0,0,0-.716.293,1.015,1.015,0,0,0-.019.89.565.565,0,0,0,.651.336.591.591,0,0,0,.465-.55C1.607,27.046,1.6,26.968,1.6,26.889Z"/><path class="a" d="M37.187,22.767a.888.888,0,0,1-.325.013c-.006-.06-.011-.107-.016-.154s-.007-.092-.013-.161a.414.414,0,0,0-.063.054.857.857,0,0,1-1.336,0,1.047,1.047,0,0,1-.221-.5,1.342,1.342,0,0,1,.084-.777.915.915,0,0,1,1.022-.561.7.7,0,0,1,.356.162c.031.026.061.053.107.094.006-.066.014-.112.014-.158,0-.282,0-.565,0-.847,0-.059.006-.117.01-.185a1.517,1.517,0,0,1,.343,0,.227.227,0,0,1,.028.162c0,.673,0,1.346,0,2.019,0,.259.01.517.014.775C37.193,22.715,37.189,22.739,37.187,22.767ZM36.8,21.753c0-.1,0-.19-.013-.279a.554.554,0,0,0-.037-.157.574.574,0,0,0-1.017-.092.981.981,0,0,0-.032,1,.56.56,0,0,0,.627.288.576.576,0,0,0,.457-.5C36.8,21.925,36.8,21.834,36.8,21.753Z"/><path class="a" d="M40.99,19.92a1.688,1.688,0,0,1,.169-.032,4.061,4.061,0,0,1,.81-.01,1.39,1.39,0,0,1,.263.059.78.78,0,0,1,.56.826.835.835,0,0,1-.578.792,1.329,1.329,0,0,1-.475.092c-.119,0-.239,0-.37,0-.005.049-.014.094-.015.14,0,.265,0,.529,0,.793,0,.06,0,.119-.005.183a.786.786,0,0,1-.345.015.194.194,0,0,1-.025-.024.034.034,0,0,1-.005-.017q0-1.342,0-2.686c0-.03,0-.06,0-.09A.158.158,0,0,1,40.99,19.92Zm.386,1.4c.085.01.163.023.241.025a.99.99,0,0,0,.49-.1.564.564,0,0,0,.3-.571.514.514,0,0,0-.4-.477,1.448,1.448,0,0,0-.59-.019c-.016,0-.031.017-.044.024A7.815,7.815,0,0,0,41.376,21.32Z"/><path class="a" d="M17.317,25.081a3.71,3.71,0,0,1,1.022-.037,1,1,0,0,1,.361.106.734.734,0,0,1,.425.624.855.855,0,0,1-.664.976,1.637,1.637,0,0,1-.516.061c-.077,0-.154,0-.244,0,0,.066-.008.124-.008.183,0,.252,0,.5,0,.757a.33.33,0,0,1-.025.183.605.605,0,0,1-.1.014c-.077,0-.155,0-.235,0a.436.436,0,0,1-.022-.2q0-1.234,0-2.468C17.311,25.216,17.314,25.156,17.317,25.081Zm.385.3a6.181,6.181,0,0,0,.019,1.108c.1.008.2.024.3.023a.967.967,0,0,0,.418-.091.56.56,0,0,0,.309-.562.506.506,0,0,0-.4-.492,1.358,1.358,0,0,0-.605-.014C17.73,25.352,17.722,25.363,17.7,25.378Z"/><path class="b" d="M47.085,10.979V10.8c0-.389,0-.777,0-1.166a.847.847,0,0,0,0-.124.132.132,0,0,0-.13-.113.126.126,0,0,0-.128.112.735.735,0,0,0-.005.124V10.8c0,.056,0,.113,0,.172a.838.838,0,0,1-.3.02c-.1,0-.2,0-.3,0s-.195,0-.3,0a.862.862,0,0,1-.012-.1c0-.461,0-.923,0-1.384a.763.763,0,0,1,.71-.751c.16-.012.321-.008.482-.008q1.338,0,2.676,0a1.234,1.234,0,0,1,.278.024.769.769,0,0,1,.6.742v.606c0,.051,0,.1,0,.161a.6.6,0,0,0,.091.02c.047,0,.094,0,.14,0h4.388c.067,0,.135,0,.2.005a.778.778,0,0,1,.724.725c0,.042,0,.083,0,.125v3.172c0,.034,0,.068,0,.119a.246.246,0,0,1-.077-.147q-.318-.909-.631-1.82c-.072-.206-.141-.412-.216-.616a2.9,2.9,0,0,0-.136-.313A.971.971,0,0,0,54.212,11c-1.3,0-2.6,0-3.905,0h-.358c-.035,0-.07-.005-.115-.009,0-.058-.007-.109-.007-.159,0-.4,0-.8,0-1.2a.857.857,0,0,0,0-.124.129.129,0,0,0-.134-.106.121.121,0,0,0-.118.1.816.816,0,0,0-.008.14c0,.389,0,.777,0,1.166a.39.39,0,0,1-.018.174A.613.613,0,0,1,49.47,11C49.076,11.011,47.236,11,47.085,10.979Z"/><path class="b" d="M49.831,6.239c0-.055,0-.106,0-.157,0-.244,0-.488,0-.731a.658.658,0,0,0,0-.109.134.134,0,0,0-.13-.112.13.13,0,0,0-.121.1.631.631,0,0,0-.009.123c0,.234,0,.467,0,.7,0,.057,0,.113,0,.173a.811.811,0,0,1-.3.022,2.444,2.444,0,0,1-.3-.006.476.476,0,0,1,.1-.119c.032-.041.066-.08.095-.123a.967.967,0,0,0,.12-.251A1.148,1.148,0,0,0,49.3,5.6a1.22,1.22,0,0,0,0-.279,1.1,1.1,0,0,0-.034-.151.855.855,0,0,0-.051-.13.9.9,0,0,0-.069-.121,1.13,1.13,0,0,0-.1-.123.917.917,0,0,0-.1-.1,1.011,1.011,0,0,0-1.348.059.956.956,0,0,0-.3.743,1.009,1.009,0,0,0,.351.717c-.013.013-.019.026-.026.026a2.789,2.789,0,0,1-.565-.013c0-.037-.009-.077-.009-.117,0-.249,0-.5,0-.747a.735.735,0,0,0,0-.124.136.136,0,0,0-.129-.114.131.131,0,0,0-.126.116,1.028,1.028,0,0,0,0,.124c0,.239,0,.477,0,.716a.246.246,0,0,1-.024.157l-.118.01a.952.952,0,0,0-.391.093.533.533,0,0,1-.34.044c0-.041-.01-.081-.01-.121,0-.441,0-.882,0-1.322a.787.787,0,0,1,.749-.786c.046,0,.093,0,.14,0h2.972a1.69,1.69,0,0,1,.247.019.77.77,0,0,1,.637.756q0,.3,0,.607c0,.051,0,.1.007.161a.7.7,0,0,0,.094.011c.145,0,.29,0,.436,0h4.139a1.271,1.271,0,0,1,.262.024.775.775,0,0,1,.612.7c0,.037,0,.073,0,.109V8.009c0,.03,0,.06,0,.1-.02,0-.039,0-.048-.009a1.113,1.113,0,0,0-.642-.286.378.378,0,0,1-.04-.011c-.012-.026-.03-.057-.042-.09-.051-.142-.1-.285-.151-.425a3.3,3.3,0,0,0-.159-.354.947.947,0,0,0-.825-.526c-.072,0-.145,0-.218,0q-1.751,0-3.5,0a.6.6,0,0,1-.284-.059.953.953,0,0,0-.345-.086C49.91,6.252,49.875,6.245,49.831,6.239Z"/><path class="b" d="M49.833,8.454c0-.055-.006-.106-.006-.157,0-.238,0-.476,0-.715a.991.991,0,0,0,0-.109.125.125,0,0,0-.123-.117.121.121,0,0,0-.132.106.918.918,0,0,0-.007.139c0,.228,0,.456,0,.685,0,.051,0,.1-.006.161a.885.885,0,0,1-.293.02,2.292,2.292,0,0,1-.315-.008c.062-.071.112-.12.154-.177a1.127,1.127,0,0,0,.114-.184.934.934,0,0,0,.072-.2,1.132,1.132,0,0,0,.021-.232,1.035,1.035,0,0,0-.025-.215,1,1,0,0,0-.075-.2.967.967,0,0,0-.116-.182,1.068,1.068,0,0,0-.154-.154,1.01,1.01,0,0,0-1.346.079.954.954,0,0,0-.285.747,1,1,0,0,0,.348.7c-.012.014-.018.027-.025.028a2.715,2.715,0,0,1-.568-.015c0-.048,0-.1,0-.149,0-.238,0-.477,0-.715a.663.663,0,0,0,0-.109.127.127,0,0,0-.138-.118.121.121,0,0,0-.119.12,1.027,1.027,0,0,0,0,.124c0,.233,0,.467,0,.7a.236.236,0,0,1-.028.16,1.647,1.647,0,0,0-.449.074,2.106,2.106,0,0,0-.375.222c-.037-.016-.031-.04-.031-.058,0-.467,0-.934,0-1.4a.769.769,0,0,1,.662-.749,1.561,1.561,0,0,1,.217-.014q1.493,0,2.987,0a1.21,1.21,0,0,1,.307.034.763.763,0,0,1,.569.731c0,.208,0,.415,0,.623a.245.245,0,0,0,.021.152.452.452,0,0,0,.183.014H55.29a1.758,1.758,0,0,1,.218.009.777.777,0,0,1,.694.738q0,.039,0,.078v1.322c0,.025,0,.05,0,.089a.229.229,0,0,1-.058-.026,1.088,1.088,0,0,0-.677-.278.514.514,0,0,1-.054-.012c-.014-.033-.031-.07-.045-.108-.041-.112-.079-.225-.122-.336a1.644,1.644,0,0,0-.211-.4.9.9,0,0,0-.682-.382c-.083-.007-.166-.009-.249-.009H50.835c-.036,0-.073,0-.109,0a.219.219,0,0,1-.169-.061.951.951,0,0,0-.4-.208c-.065-.017-.132-.025-.2-.037Z"/><path class="b" d="M49.026,5.453a.719.719,0,1,1-.724-.7A.7.7,0,0,1,49.026,5.453Z"/><path class="b" d="M49.026,7.673a.719.719,0,0,1-1.437.007.719.719,0,0,1,1.437-.007Z"/><path class="b" d="M48.313,2.414a.7.7,0,0,1,.115,1.392.7.7,0,1,1-.208-1.391C48.251,2.412,48.282,2.414,48.313,2.414Z"/><path class="a" d="M46.548,21.75a3.047,3.047,0,0,1-.066.37.963.963,0,0,1-.709.676,1.1,1.1,0,0,1-.481.023.981.981,0,0,1-.825-.916,1.3,1.3,0,0,1,.071-.6.968.968,0,0,1,.827-.633,1.147,1.147,0,0,1,.429.021.97.97,0,0,1,.735.879,1.78,1.78,0,0,1,0,.179Zm-1.689-.013c0,.054,0,.108.01.162a.819.819,0,0,0,.187.441.57.57,0,0,0,.86.02.7.7,0,0,0,.152-.242,1.017,1.017,0,0,0-.015-.79.8.8,0,0,0-.137-.209.489.489,0,0,0-.33-.166.585.585,0,0,0-.623.332A.944.944,0,0,0,44.859,21.737Z"/><path class="a" d="M14.145,26.889c-.009.089-.013.18-.029.268A1.008,1.008,0,0,1,13.1,28a.985.985,0,0,1-1.024-.909,1.375,1.375,0,0,1,.021-.466,1.009,1.009,0,0,1,1.069-.8.982.982,0,0,1,.976.977c0,.03,0,.06,0,.09Zm-1.682-.007a.953.953,0,0,0,.13.533.58.58,0,0,0,1,.01.819.819,0,0,0,.125-.316,1,1,0,0,0-.124-.728.534.534,0,0,0-.408-.265.586.586,0,0,0-.624.33A.928.928,0,0,0,12.463,26.882Z"/><path class="a" d="M57.51,21.737a1.152,1.152,0,0,1-.064.413.969.969,0,0,1-.7.645,1.11,1.11,0,0,1-.5.021.98.98,0,0,1-.807-.874,1.48,1.48,0,0,1,.015-.465,1.037,1.037,0,0,1,2.051.212Zm-1.674.01a.878.878,0,0,0,.123.5.579.579,0,0,0,1,.03,1.012,1.012,0,0,0-.015-1.089.539.539,0,0,0-.374-.229.59.59,0,0,0-.639.335A.941.941,0,0,0,55.836,21.747Z"/><path class="a" d="M14.575,21.744c-.02.114-.03.235-.062.35a1.031,1.031,0,0,1-1.172.73.976.976,0,0,1-.841-.842,1.211,1.211,0,0,1,.119-.8.958.958,0,0,1,.743-.508,1.145,1.145,0,0,1,.448.018.938.938,0,0,1,.712.712A3.3,3.3,0,0,1,14.575,21.744Zm-.409,0a1.077,1.077,0,0,0-.138-.517.594.594,0,0,0-1-.022,1.038,1.038,0,0,0,0,1.061.607.607,0,0,0,.287.238.577.577,0,0,0,.675-.2A.966.966,0,0,0,14.166,21.747Z"/><path class="a" d="M26.834,26.894a3.31,3.31,0,0,1-.068.388,1.036,1.036,0,0,1-2.017-.234,1.368,1.368,0,0,1,.048-.517,1.008,1.008,0,0,1,1.031-.71.974.974,0,0,1,.989.963l0,.108Zm-.414.01a.929.929,0,0,0-.13-.506.592.592,0,0,0-1.032.031,1.018,1.018,0,0,0-.019.92.627.627,0,0,0,.176.226.561.561,0,0,0,.729,0,.742.742,0,0,0,.227-.34A.925.925,0,0,0,26.42,26.9Z"/><path class="a" d="M28.343,21.757a2.669,2.669,0,0,1-.032.267,1.024,1.024,0,0,1-1.189.8.984.984,0,0,1-.855-.947,1.282,1.282,0,0,1,.071-.566.968.968,0,0,1,.838-.643,1.12,1.12,0,0,1,.412.02.963.963,0,0,1,.738.835C28.336,21.593,28.337,21.666,28.343,21.757Zm-.4-.027a.922.922,0,0,0-.149-.524.546.546,0,0,0-.415-.255.582.582,0,0,0-.607.329,1.04,1.04,0,0,0-.078.719.781.781,0,0,0,.142.308.568.568,0,0,0,.905.029.931.931,0,0,0,.123-.2A.9.9,0,0,0,27.94,21.73Z"/><path class="a" d="M50.164,21.812c-.267.012-.513,0-.758.006s-.48-.006-.717,0a.621.621,0,0,0,.525.691,1.432,1.432,0,0,0,.59-.03l.182-.046.065.254a.76.76,0,0,1-.1.048,1.773,1.773,0,0,1-.818.077A.926.926,0,0,1,48.313,22a1.324,1.324,0,0,1,.082-.743.954.954,0,0,1,1.152-.569.692.692,0,0,1,.447.312A1.186,1.186,0,0,1,50.164,21.812Zm-.375-.291a.591.591,0,0,0,0-.084.825.825,0,0,0-.027-.14.5.5,0,0,0-.619-.351.6.6,0,0,0-.451.575A8.207,8.207,0,0,0,49.789,21.521Z"/><path class="a" d="M4.343,26.972c-.262.016-.507,0-.752.008s-.478,0-.715,0a.614.614,0,0,0,.5.69,1.393,1.393,0,0,0,.589-.023c.059-.013.116-.032.172-.047a.4.4,0,0,1,.08.251.145.145,0,0,1-.04.03,1.683,1.683,0,0,1-.939.08.91.91,0,0,1-.737-.748,1.317,1.317,0,0,1,.045-.728.925.925,0,0,1,.657-.635,1.056,1.056,0,0,1,.518-.006.739.739,0,0,1,.5.386A1.218,1.218,0,0,1,4.343,26.972ZM3.974,26.7A.638.638,0,0,0,3.9,26.35a.453.453,0,0,0-.2-.2.556.556,0,0,0-.67.136.757.757,0,0,0-.15.3.456.456,0,0,0,0,.105Z"/><path class="a" d="M21.206,26.98h-.737c-.239,0-.478,0-.716,0a.636.636,0,0,0,.54.7,1.4,1.4,0,0,0,.572-.029c.058-.013.115-.03.179-.047a.466.466,0,0,1,.064.26,1.148,1.148,0,0,1-.4.113,1.514,1.514,0,0,1-.52,0,.922.922,0,0,1-.8-.79,1.315,1.315,0,0,1,.1-.81.909.909,0,0,1,.607-.523,1.069,1.069,0,0,1,.518-.008.728.728,0,0,1,.49.367,1.149,1.149,0,0,1,.138.713C21.236,26.937,21.226,26.947,21.206,26.98Zm-.349-.3a.919.919,0,0,0,0-.105.5.5,0,0,0-.37-.46.543.543,0,0,0-.6.214.726.726,0,0,0-.116.262.645.645,0,0,0-.006.1A7.931,7.931,0,0,0,20.857,26.681Z"/><path class="a" d="M39.518,21.818c-.253,0-.493,0-.733,0s-.479-.006-.707,0a.1.1,0,0,0-.028.11.641.641,0,0,0,.6.59,1.459,1.459,0,0,0,.518-.038c.057-.013.114-.029.175-.045a.627.627,0,0,1,.072.252.7.7,0,0,1-.095.047,1.714,1.714,0,0,1-.87.068.926.926,0,0,1-.767-.8,1.391,1.391,0,0,1,.037-.625.946.946,0,0,1,.673-.688,1.045,1.045,0,0,1,.518-.006.725.725,0,0,1,.469.339,1.17,1.17,0,0,1,.161.708A.516.516,0,0,1,39.518,21.818Zm-.358-.285a.586.586,0,0,0-.07-.344.461.461,0,0,0-.283-.233.579.579,0,0,0-.738.577Z"/><path class="a" d="M34.6,26.976c-.129,0-.249,0-.368,0s-.252,0-.378,0-.241,0-.361,0a1.4,1.4,0,0,0-.354.017.62.62,0,0,0,.517.678,1.415,1.415,0,0,0,.59-.027c.057-.013.114-.03.178-.047a.874.874,0,0,1,.081.247.585.585,0,0,1-.095.05,1.7,1.7,0,0,1-.887.069.9.9,0,0,1-.722-.653,1.294,1.294,0,0,1,.061-.932.955.955,0,0,1,1.156-.528.723.723,0,0,1,.449.338A1.109,1.109,0,0,1,34.6,26.976Zm-1.456-.29a.178.178,0,0,0,.049.013c.33,0,.659,0,.989,0a.272.272,0,0,0,.066-.02c0-.043,0-.079-.01-.114a.865.865,0,0,0-.029-.122.5.5,0,0,0-.6-.34A.6.6,0,0,0,33.139,26.686Z"/><path class="a" d="M7.183,21.815c-.153,0-.314,0-.475,0s-.325,0-.487,0-.322-.007-.491.009a.643.643,0,0,0,.129.445.613.613,0,0,0,.408.242,1.4,1.4,0,0,0,.589-.031l.175-.043a.7.7,0,0,1,.061.257.759.759,0,0,1-.1.045,1.8,1.8,0,0,1-.853.068.917.917,0,0,1-.769-.759,1.335,1.335,0,0,1,.065-.78.922.922,0,0,1,.625-.577,1.054,1.054,0,0,1,.535-.008.735.735,0,0,1,.476.358,1.211,1.211,0,0,1,.149.677.163.163,0,0,1-.012.052A.265.265,0,0,1,7.183,21.815Zm-.349-.282a.611.611,0,0,0-.076-.36.476.476,0,0,0-.274-.217.579.579,0,0,0-.739.577Z"/><path class="a" d="M31.333,21.084l-.086-.236a.971.971,0,0,1,.111-.069,1.416,1.416,0,0,1,.812-.1.654.654,0,0,1,.558.541,1.441,1.441,0,0,1,.033.286c.008.409.011.818.015,1.227a.156.156,0,0,1-.014.039,1.062,1.062,0,0,1-.306.017L32.4,22.57c-.056-.006-.077.045-.112.072a.829.829,0,0,1-.729.169.615.615,0,0,1-.319-1,.859.859,0,0,1,.356-.237,1.845,1.845,0,0,1,.565-.109.445.445,0,0,0,.192-.021A.4.4,0,0,0,32,20.95a1,1,0,0,0-.513.067C31.445,21.034,31.4,21.054,31.333,21.084Zm1.033.64c-.067,0-.12,0-.172,0a1.2,1.2,0,0,0-.486.113.381.381,0,0,0-.215.415.313.313,0,0,0,.291.292.528.528,0,0,0,.526-.239.369.369,0,0,0,.062-.165A1.718,1.718,0,0,0,32.366,21.724Z"/><path class="a" d="M30.839,26.617a.371.371,0,0,0-.009-.214.377.377,0,0,0-.314-.285,1.022,1.022,0,0,0-.531.056c-.051.018-.1.042-.148.063a.4.4,0,0,1-.1-.234.906.906,0,0,1,.1-.062,1.412,1.412,0,0,1,.811-.1.655.655,0,0,1,.558.54,1.412,1.412,0,0,1,.032.268c.008.414.011.828.016,1.243a.175.175,0,0,1-.011.04.772.772,0,0,1-.295.014c-.061-.06-.038-.141-.068-.211-.054-.008-.076.043-.109.07a.831.831,0,0,1-.71.177.553.553,0,0,1-.465-.424.628.628,0,0,1,.181-.644.953.953,0,0,1,.394-.21,2,2,0,0,1,.533-.078C30.748,26.623,30.789,26.62,30.839,26.617Zm.019.277a1.271,1.271,0,0,0-.665.1.448.448,0,0,0-.139.11.379.379,0,0,0-.062.389.311.311,0,0,0,.267.21.546.546,0,0,0,.54-.249.349.349,0,0,0,.059-.185Z"/><path class="a" d="M10.188,27.935a.927.927,0,0,1-.312.006l-.048-.209c-.058,0-.079.047-.115.075a.827.827,0,0,1-.763.158.559.559,0,0,1-.423-.5.628.628,0,0,1,.272-.609,1,1,0,0,1,.325-.151,1.947,1.947,0,0,1,.461-.075c.065,0,.13-.006.192-.009a.4.4,0,0,0-.323-.5,1.013,1.013,0,0,0-.531.059c-.05.018-.1.041-.152.064A.485.485,0,0,1,8.681,26a.953.953,0,0,1,.454-.163,1.931,1.931,0,0,1,.395-.008.66.66,0,0,1,.628.571,1.712,1.712,0,0,1,.029.286c.007.4.011.793.015,1.189A.274.274,0,0,1,10.188,27.935ZM9.8,26.894a1.262,1.262,0,0,0-.649.1A.475.475,0,0,0,9,27.108a.379.379,0,0,0-.063.389.31.31,0,0,0,.268.21.55.55,0,0,0,.54-.249.363.363,0,0,0,.06-.186Z"/><path class="a" d="M22.439,22.549c-.053.045-.092.082-.135.113a.823.823,0,0,1-.681.154.554.554,0,0,1-.459-.407.628.628,0,0,1,.151-.635.808.808,0,0,1,.3-.194,1.822,1.822,0,0,1,.562-.116.669.669,0,0,0,.21-.018.386.386,0,0,0-.3-.489,1,1,0,0,0-.548.057c-.05.018-.1.04-.152.063a.555.555,0,0,1-.092-.236,1.017,1.017,0,0,1,.439-.163,1.438,1.438,0,0,1,.449-.007.655.655,0,0,1,.579.517,1.638,1.638,0,0,1,.039.321c.007.168,0,.336,0,.5,0,.246,0,.492.008.74a.432.432,0,0,1-.322.014Zm-.041-.823a1.3,1.3,0,0,0-.627.1.381.381,0,0,0-.238.419.316.316,0,0,0,.269.3.546.546,0,0,0,.6-.344A1.118,1.118,0,0,0,22.4,21.726Z"/><path class="a" d="M29.207,22.775a1.347,1.347,0,0,1-.352,0,.284.284,0,0,1-.027-.184c0-.439,0-.878,0-1.317,0-.157-.008-.313-.013-.469v-.093a1.216,1.216,0,0,1,.318-.006c.059.081,0,.189.063.284l.094-.094a.815.815,0,0,1,.8-.217.648.648,0,0,1,.449.362.946.946,0,0,1,.1.417c0,.415,0,.83,0,1.245a.4.4,0,0,1-.01.059.771.771,0,0,1-.376,0c0-.065-.006-.124-.006-.183,0-.331,0-.662,0-.993a1.264,1.264,0,0,0-.031-.267.461.461,0,0,0-.668-.305.532.532,0,0,0-.323.483c-.007.174,0,.349,0,.523,0,.217,0,.433,0,.65A.981.981,0,0,1,29.207,22.775Z"/><path class="a" d="M27.675,27.932a.761.761,0,0,1-.361,0L27.3,25.883a.849.849,0,0,1,.323-.008c.007.049.013.095.018.141s.008.08.011.116c.059.018.073-.025.094-.048a.808.808,0,0,1,.719-.255.672.672,0,0,1,.559.4.917.917,0,0,1,.091.384c0,.42,0,.84,0,1.261a.213.213,0,0,1-.011.05.688.688,0,0,1-.366.005c0-.042-.011-.088-.011-.134,0-.336,0-.673,0-1.009a1.436,1.436,0,0,0-.03-.285.457.457,0,0,0-.642-.33.53.53,0,0,0-.347.427,1.172,1.172,0,0,0-.012.2c0,.318,0,.637,0,.955A.4.4,0,0,1,27.675,27.932Z"/><path class="a" d="M15.049,20.711a.99.99,0,0,1,.317.007l.04.266c.062-.018.081-.066.115-.1a.808.808,0,0,1,.8-.2.7.7,0,0,1,.515.612,1.063,1.063,0,0,1,.015.179q0,.6,0,1.191a.781.781,0,0,1-.009.086.588.588,0,0,1-.354.008.337.337,0,0,1-.018-.175c0-.307,0-.614,0-.92a1.729,1.729,0,0,0-.027-.305.469.469,0,0,0-.736-.315.551.551,0,0,0-.27.444c0,.048,0,.1,0,.145V22.76a.714.714,0,0,1-.372.009C15.045,22.654,15.032,20.9,15.049,20.711Z"/><path class="a" d="M59.418,22.776v-.2c0-.324,0-.649,0-.973a1.342,1.342,0,0,0-.03-.268.462.462,0,0,0-.675-.315.553.553,0,0,0-.326.5c-.006.132,0,.264,0,.4q0,.369,0,.739a.921.921,0,0,1-.012.11.8.8,0,0,1-.352,0A.331.331,0,0,1,58,22.588c0-.36,0-.721,0-1.081,0-.216-.007-.432-.01-.649,0-.041,0-.083,0-.133a.79.79,0,0,1,.321-.014c.05.085.016.18.042.266.048.023.059-.023.08-.046a.8.8,0,0,1,.588-.272.713.713,0,0,1,.76.579,1.356,1.356,0,0,1,.034.268c0,.391,0,.781,0,1.172a.86.86,0,0,1-.011.091A1.105,1.105,0,0,1,59.418,22.776Z"/><path class="a" d="M24.932,20.772a.581.581,0,0,1-.081.272,1.757,1.757,0,0,0-.232-.059,1.246,1.246,0,0,0-.322-.015.675.675,0,0,0-.6.521.914.914,0,0,0,.01.55.679.679,0,0,0,.616.476,1.072,1.072,0,0,0,.41-.042c.039-.013.078-.024.124-.038a.718.718,0,0,1,.072.269.6.6,0,0,1-.079.041,1.5,1.5,0,0,1-.781.061.961.961,0,0,1-.793-.865,1.307,1.307,0,0,1,.022-.466,1.012,1.012,0,0,1,.751-.773,1.407,1.407,0,0,1,.748.006.6.6,0,0,1,.084.031A.536.536,0,0,1,24.932,20.772Z"/><path class="a" d="M52.09,22.439a.707.707,0,0,1,.068.262.236.236,0,0,1-.046.033,1.417,1.417,0,0,1-.9.053.94.94,0,0,1-.7-.793,1.2,1.2,0,0,1,.034-.589,1.021,1.021,0,0,1,.839-.726,1.36,1.36,0,0,1,.643.032c.045.014.087.036.132.055a.738.738,0,0,1-.075.276,1,1,0,0,1-.1-.023,1.01,1.01,0,0,0-.408-.056.694.694,0,0,0-.647.513.921.921,0,0,0,0,.55.681.681,0,0,0,.623.492,1.1,1.1,0,0,0,.41-.044Z"/><path class="a" d="M54.043,22.433l.063.267a.45.45,0,0,1-.08.046,1.518,1.518,0,0,1-.8.06A.953.953,0,0,1,52.456,22a1.312,1.312,0,0,1,.022-.554,1.018,1.018,0,0,1,.863-.769,1.338,1.338,0,0,1,.625.033c.045.013.088.034.138.054a.759.759,0,0,1-.079.281l-.125-.036a.99.99,0,0,0-.5-.028.672.672,0,0,0-.527.488.9.9,0,0,0,.014.6.667.667,0,0,0,.6.446,1.1,1.1,0,0,0,.445-.051Z"/><path class="a" d="M9.229,20.767l-.089.275c-.046-.011-.08-.016-.113-.027a1.058,1.058,0,0,0-.391-.053.694.694,0,0,0-.652.506.9.9,0,0,0,.014.6.666.666,0,0,0,.6.447,1.053,1.053,0,0,0,.41-.04l.124-.038c.064.076.053.171.082.254a.223.223,0,0,1-.045.037,1.416,1.416,0,0,1-.883.064.923.923,0,0,1-.686-.652,1.224,1.224,0,0,1-.018-.676,1.019,1.019,0,0,1,.865-.789,1.351,1.351,0,0,1,.625.032C9.117,20.722,9.161,20.742,9.229,20.767Z"/><path class="a" d="M11.158,20.777a.883.883,0,0,1-.084.264l-.122-.032a1,1,0,0,0-.533-.02.657.657,0,0,0-.455.377.877.877,0,0,0-.019.718.663.663,0,0,0,.591.432,1.016,1.016,0,0,0,.41-.039c.04-.013.08-.024.13-.039a.5.5,0,0,1,.066.274,1.031,1.031,0,0,1-.4.11,1.24,1.24,0,0,1-.6-.055.907.907,0,0,1-.569-.541,1.2,1.2,0,0,1,0-.913,1,1,0,0,1,.76-.625,1.393,1.393,0,0,1,.73.036.311.311,0,0,1,.05.021A.437.437,0,0,1,11.158,20.777Z"/><path class="a" d="M34.963,27.84a.679.679,0,0,1,.087-.257c.127.039.246.081.367.111a.574.574,0,0,0,.338-.017.278.278,0,0,0,.2-.23.274.274,0,0,0-.114-.285,1.862,1.862,0,0,0-.238-.126c-.081-.039-.167-.069-.247-.109a.767.767,0,0,1-.136-.087.531.531,0,0,1-.027-.833.68.68,0,0,1,.336-.166,1.1,1.1,0,0,1,.654.067.5.5,0,0,1,.066.042.828.828,0,0,1-.085.262c-.061-.022-.115-.043-.171-.062a.658.658,0,0,0-.39-.028.269.269,0,0,0-.2.183.233.233,0,0,0,.067.263.756.756,0,0,0,.166.106c.081.039.167.067.249.105a1.637,1.637,0,0,1,.2.113.583.583,0,0,1-.061,1,1.092,1.092,0,0,1-.651.094A.849.849,0,0,1,34.963,27.84Z"/><path class="a" d="M15.783,25.96a.786.786,0,0,1-.094.251c-.061-.022-.115-.045-.171-.064a.674.674,0,0,0-.39-.024.283.283,0,0,0-.181.138.255.255,0,0,0,.054.312.644.644,0,0,0,.135.089c.08.039.166.068.247.107a2.111,2.111,0,0,1,.252.137.582.582,0,0,1-.036.961.917.917,0,0,1-.356.12,1.251,1.251,0,0,1-.7-.106.316.316,0,0,1-.048-.039.64.64,0,0,1,.086-.259c.126.039.245.08.366.111a.6.6,0,0,0,.338-.016.283.283,0,0,0,.208-.246.273.273,0,0,0-.129-.279,1.982,1.982,0,0,0-.274-.133A1.21,1.21,0,0,1,14.7,26.8a.494.494,0,0,1-.14-.527.56.56,0,0,1,.134-.231.62.62,0,0,1,.273-.17,1.073,1.073,0,0,1,.772.052A.217.217,0,0,1,15.783,25.96Z"/><path class="a" d="M47.119,20.32a2.378,2.378,0,0,1,.356-.114c.039.167,0,.325.032.482.174.036.349,0,.526.025a.689.689,0,0,1,0,.26c-.171.044-.347,0-.528.031a.935.935,0,0,0-.013.1c0,.331,0,.662,0,.992a.963.963,0,0,0,.022.215.24.24,0,0,0,.246.2c.072,0,.144,0,.216,0a.393.393,0,0,1,.025.266.79.79,0,0,1-.574.009.434.434,0,0,1-.28-.33,1.564,1.564,0,0,1-.037-.321c-.005-.312,0-.625,0-.938v-.18c-.1-.056-.211,0-.317-.047a1.042,1.042,0,0,1-.01-.117c0-.041,0-.083,0-.128.1-.052.205,0,.309-.043C47.127,20.57,47.1,20.449,47.119,20.32Z"/><path class="a" d="M24.324,25.956l-.09.256-.175-.062a.68.68,0,0,0-.389-.029.271.271,0,0,0-.22.288.211.211,0,0,0,.075.158.879.879,0,0,0,.15.1c.075.038.155.065.231.1a2.243,2.243,0,0,1,.239.123.585.585,0,0,1-.053,1,.976.976,0,0,1-.326.1,1.272,1.272,0,0,1-.67-.1.939.939,0,0,1-.083-.052l.09-.266c.047.018.084.034.123.045.109.031.218.065.33.086a.5.5,0,0,0,.283-.036.287.287,0,0,0,.076-.5.982.982,0,0,0-.2-.114c-.075-.037-.157-.061-.231-.1a1.134,1.134,0,0,1-.227-.144.518.518,0,0,1-.046-.755.651.651,0,0,1,.368-.213,1.1,1.1,0,0,1,.671.063A.863.863,0,0,1,24.324,25.956Z"/><path class="a" d="M10.867,26.158h-.292a.428.428,0,0,1-.022-.27c.1-.051.2,0,.3-.041.038-.115,0-.238.028-.363a1.666,1.666,0,0,1,.329-.108c.046.027.037.066.037.1,0,.12,0,.239,0,.367a.688.688,0,0,0,.11.022c.1,0,.2,0,.306,0,.041,0,.082.006.127.01a.629.629,0,0,1,.008.263.65.65,0,0,1-.1.017c-.108,0-.216,0-.325,0a1.027,1.027,0,0,0-.112.011c0,.048-.011.089-.011.129,0,.319,0,.637,0,.956a.971.971,0,0,0,.026.214.24.24,0,0,0,.255.207c.071,0,.143,0,.218,0a.471.471,0,0,1,.021.268.872.872,0,0,1-.534.023.436.436,0,0,1-.312-.3,1.088,1.088,0,0,1-.047-.283c-.007-.336-.005-.673-.007-1.009C10.874,26.311,10.87,26.246,10.867,26.158Z"/><path class="a" d="M33.759,22.774a1.355,1.355,0,0,1-.365,0,.969.969,0,0,1-.013-.109V19.859c0-.035,0-.07.007-.117a1.175,1.175,0,0,1,.365,0,.669.669,0,0,1,.016.105q0,1.4,0,2.809C33.769,22.689,33.763,22.724,33.759,22.774Z"/><path class="a" d="M31.867,24.9h.353c.048.05.032.107.032.159,0,.39,0,.781,0,1.172v1.5c0,.065,0,.13,0,.2a1.057,1.057,0,0,1-.365.023.4.4,0,0,1-.024-.2q0-.819,0-1.64c0-.336,0-.673,0-1.009C31.861,25.035,31.864,24.976,31.867,24.9Z"/><path class="a" d="M43.607,22.775a1.309,1.309,0,0,1-.353,0c-.049-.044-.036-.095-.036-.142,0-.3,0-.6,0-.9s0-.589-.008-.884c0-.041,0-.082,0-.132a1.106,1.106,0,0,1,.314-.011,2.114,2.114,0,0,1,.046.319c.052,0,.056-.041.074-.068a.662.662,0,0,1,.279-.248.5.5,0,0,1,.338-.037.944.944,0,0,1-.006.335c-.047,0-.094.009-.141.012a.494.494,0,0,0-.441.32.9.9,0,0,0-.065.37v1.064Z"/><path class="a" d="M4.107,20.712a.891.891,0,0,1,.318.008l.027.3c.049.014.052-.025.069-.044a1.709,1.709,0,0,1,.15-.177.5.5,0,0,1,.478-.119.973.973,0,0,1,0,.323c-.041.005-.081.011-.12.014a.509.509,0,0,0-.494.4A1.128,1.128,0,0,0,4.5,21.7c0,.294,0,.588,0,.882,0,.059,0,.118,0,.174a.631.631,0,0,1-.387,0Z"/><path class="a" d="M21.722,27.92V25.882a1.069,1.069,0,0,1,.3-.015c.047.109.012.22.042.318.038.019.045-.008.058-.027a1.386,1.386,0,0,1,.108-.144.552.552,0,0,1,.526-.178.864.864,0,0,1,0,.34l-.15.009a.481.481,0,0,0-.415.275.73.73,0,0,0-.082.365c0,.306,0,.613,0,.919,0,.06,0,.119,0,.175A.647.647,0,0,1,21.722,27.92Z"/><path class="a" d="M54.582,20.713a1.719,1.719,0,0,1,.353,0c.023.238.008.465.011.692s0,.456,0,.685.006.453,0,.676a.729.729,0,0,1-.365,0,.08.08,0,0,1-.013-.013.034.034,0,0,1-.005-.017q0-.965,0-1.928a.347.347,0,0,1,.01-.071S54.571,20.728,54.582,20.713Z"/><path class="a" d="M3.09,20.711h.36a.427.427,0,0,1,.019.087c0,.629,0,1.259,0,1.888a.59.59,0,0,1-.01.076,1.037,1.037,0,0,1-.362.022.773.773,0,0,1-.015-.112q0-.926,0-1.853C3.082,20.79,3.086,20.761,3.09,20.711Z"/><path class="a" d="M11.991,22.759a.623.623,0,0,1-.37,0c-.02-.169-.018-1.888,0-2.039A.34.34,0,0,1,11.8,20.7c.06,0,.119,0,.185,0A.546.546,0,0,1,12,20.8q0,.948,0,1.894A.469.469,0,0,1,11.991,22.759Z"/><path class="a" d="M25.4,20.711a2.064,2.064,0,0,1,.341,0,.227.227,0,0,1,.027.026.047.047,0,0,1,0,.017q0,.912.005,1.822c0,.049,0,.1,0,.145a.146.146,0,0,1-.01.034.119.119,0,0,1-.015.022,1.143,1.143,0,0,1-.331.006.315.315,0,0,1-.03-.2c0-.469,0-.939,0-1.408,0-.108,0-.216,0-.325C25.386,20.809,25.392,20.768,25.4,20.711Z"/><path class="a" d="M56.616,19.806H57c0,.017.009.033,0,.039-.161.191-.324.382-.482.567a1.389,1.389,0,0,1-.256.005c0-.027,0-.041,0-.05Z"/><path class="a" d="M13.566,20.42c-.06,0-.12,0-.179,0a.685.685,0,0,1-.082-.01c.11-.217.246-.4.361-.6h.392c0,.021,0,.042-.006.052C13.893,20.044,13.731,20.229,13.566,20.42Z"/><path class="a" d="M25.822,20.113a.23.23,0,0,1-.241.234.226.226,0,0,1-.243-.23.242.242,0,0,1,.484,0Z"/><path class="a" d="M54.988,20.118a.239.239,0,0,1-.477-.006.234.234,0,0,1,.242-.234A.228.228,0,0,1,54.988,20.118Z"/><path class="a" d="M12.04,20.141a.231.231,0,0,1-.266.206.221.221,0,0,1-.21-.258.239.239,0,0,1,.476.052Z"/><path class="a" d="M3.266,20.347a.221.221,0,0,1-.232-.238.24.24,0,0,1,.48.012A.229.229,0,0,1,3.266,20.347Z"/></svg>