<svg xmlns="http://www.w3.org/2000/svg" width="119" height="44" viewBox="0 0 119 44"><path d="M18.793,34.824H14.322V10.446a.617.617,0,0,0-1.017-.469L.217,21.119a.618.618,0,0,0-.07.87L2.8,25.105a.615.615,0,0,0,.869.07l5.325-4.534V34.824H4.454a.616.616,0,0,0-.617.616v4.032a.616.616,0,0,0,.617.616H18.793a.616.616,0,0,0,.617-.616V35.44a.616.616,0,0,0-.617-.616" style="fill:#ff6042"/><path d="M50.8,19.331l7.443-8.668a.479.479,0,0,0-.365-.79H39.412a.748.748,0,0,0-.748.748v3.8a.748.748,0,0,0,.748.748h8l-5.62,6.565a.48.48,0,0,0,.055.676l3.209,2.873a.48.48,0,0,0,.676-.055l1.254-1.461a7.509,7.509,0,1,1-8.292,8.149.743.743,0,0,0-.735-.685h-3.8a.738.738,0,0,0-.738.778A12.77,12.77,0,1,0,50.8,19.331" style="fill:#39b55a"/><path d="M29.956,20.7a12.953,12.953,0,0,0,2.507-7.89A13.163,13.163,0,0,0,19.23,0H17.553a.74.74,0,0,0-.74.74V4.627a.74.74,0,0,0,.74.74h1.72A7.77,7.77,0,0,1,27.1,12.8a7.673,7.673,0,0,1-6.97,7.864.746.746,0,0,0-.689.738v3.9a.73.73,0,0,0,.767.732H37.888a.74.74,0,0,0,.74-.74v-3.85a.74.74,0,0,0-.74-.74Z" style="fill:#ffa000"/><path d="M77.744,17.659a3.66,3.66,0,0,0-2.269-.7,4.243,4.243,0,0,0-3.2,1.3,4.488,4.488,0,0,0-1.231,3.236,4.27,4.27,0,0,0,1.372,3.29A4.893,4.893,0,0,0,75.8,26.049v0H77.95a.431.431,0,0,0,.431-.431v-.809a.431.431,0,0,0-.431-.432H76.214a3.737,3.737,0,0,1-2.208-.615,2.489,2.489,0,0,1-1.046-1.706h6.121a.493.493,0,0,0,.493-.493,4.477,4.477,0,0,0-1.83-3.905m-4.767,2.955a2.2,2.2,0,0,1,.748-1.469,2.4,2.4,0,0,1,1.662-.589,2.141,2.141,0,0,1,2.269,2.058Z" style="fill:#333"/><path d="M66.539,20.7l-1-.211q-.756-.228-.826-.264-.546-.28-.546-.686a.775.775,0,0,1,.458-.7,2.753,2.753,0,0,1,1.319-.255,6.027,6.027,0,0,1,2.507.572.43.43,0,0,0,.606-.393v-.8a.439.439,0,0,0-.23-.383,6.07,6.07,0,0,0-2.953-.636,4.472,4.472,0,0,0-2.817.77,2.341,2.341,0,0,0-.822,2.121,2.034,2.034,0,0,0,.666,1.34,5.36,5.36,0,0,0,2.216.993l1.073.264a5.93,5.93,0,0,1,.827.264.785.785,0,0,1,.528.686.831.831,0,0,1-.5.748,2.955,2.955,0,0,1-1.4.272,6.227,6.227,0,0,1-2.892-.663.429.429,0,0,0-.626.383v.672a.639.639,0,0,0,.331.565,6.844,6.844,0,0,0,3.275.679,4.688,4.688,0,0,0,2.727-.721,2.214,2.214,0,0,0,1.037-1.9q0-2.074-2.955-2.726" style="fill:#333"/><path d="M89.622,17.184H88.584a.431.431,0,0,0-.431.431v.7a3.667,3.667,0,0,0-3.078-1.355,3.9,3.9,0,0,0-3.008,1.284,4.361,4.361,0,0,0-1.179,3.114A4.482,4.482,0,0,0,82.067,24.5a3.9,3.9,0,0,0,3.008,1.285,3.727,3.727,0,0,0,3.078-1.355v.651l-.018.351a2.487,2.487,0,0,1-1.046,1.705,3.732,3.732,0,0,1-2.208.616H83.145a.431.431,0,0,0-.431.432V29a.431.431,0,0,0,.431.431H85.3v0a4.9,4.9,0,0,0,3.385-1.266,4.234,4.234,0,0,0,1.368-3.112h0V17.615a.431.431,0,0,0-.431-.431m-1.469,5.453A2.617,2.617,0,0,1,87.115,23.7a2.962,2.962,0,0,1-1.53.413,2.694,2.694,0,0,1-1.988-.791,2.805,2.805,0,0,1,0-3.905,2.7,2.7,0,0,1,1.988-.792,2.958,2.958,0,0,1,1.539.413,2.613,2.613,0,0,1,1.029,1.082Z" style="fill:#333"/><path d="M100.171,17.184H99.134a.431.431,0,0,0-.431.431v5.251a2.879,2.879,0,0,1-1.056,1.011,2.75,2.75,0,0,1-1.389.4q-2.023,0-2.023-2.234V17.615a.431.431,0,0,0-.431-.431H92.766a.431.431,0,0,0-.431.431v4.846A3.868,3.868,0,0,0,93.17,25.1a2.986,2.986,0,0,0,2.367.949A4.128,4.128,0,0,0,98.7,24.677v.928a.431.431,0,0,0,.431.431h1.037a.431.431,0,0,0,.432-.431v-7.99a.431.431,0,0,0-.432-.431" style="fill:#333"/><path d="M106.307,17.452a3.336,3.336,0,0,0-1.319,1.24V17.628a.431.431,0,0,0-.431-.431h-1.038a.431.431,0,0,0-.431.431v7.99a.431.431,0,0,0,.431.431h1.038a.431.431,0,0,0,.431-.431V20.539a2.775,2.775,0,0,1,1.091-1.2,3.174,3.174,0,0,1,1.741-.493l.087,0a.431.431,0,0,0,.441-.431V17.193c0-.078-.025-.225-.176-.225A3.806,3.806,0,0,0,106.307,17.452Z" style="fill:#333"/><path d="M117.226,18.294a5.123,5.123,0,0,0-6.907,0,4.632,4.632,0,0,0,0,6.549,5.123,5.123,0,0,0,6.907,0,4.473,4.473,0,0,0,1.356-3.284,4.412,4.412,0,0,0-1.356-3.265m-1.392,5.353a2.951,2.951,0,0,1-4.122,0,2.917,2.917,0,0,1,2.07-5,2.834,2.834,0,0,1,2.873,2.908,2.829,2.829,0,0,1-.821,2.088" style="fill:#333"/></svg>