<svg xmlns="http://www.w3.org/2000/svg" width="269" height="28" viewBox="0 0 269 28"><defs><style>.a{fill:none;stroke:#999;stroke-miterlimit:10;stroke-width:0.462px;}.b,.c{fill:#999;}.c{font-size:8.207px;font-family:Helvetica;}</style></defs><title>logo</title><line class="a" x1="80.892" y1="5.934" x2="80.892" y2="22.648"/><path class="b" d="M91.809,7.405l-.654.531a2.048,2.048,0,0,0-.679-.887A1.932,1.932,0,0,0,89.4,6.788a1.9,1.9,0,0,0-1.133.3.905.905,0,0,0-.413.764.772.772,0,0,0,.161.5,1.271,1.271,0,0,0,.536.346,5.519,5.519,0,0,0,1.039.261,3.9,3.9,0,0,1,1.759.626,1.4,1.4,0,0,1,.518,1.158,1.528,1.528,0,0,1-.3.934,1.921,1.921,0,0,1-.849.626,3.361,3.361,0,0,1-1.271.223,3.293,3.293,0,0,1-1.618-.37,2.573,2.573,0,0,1-1.02-.987l.655-.531a1.939,1.939,0,0,0,.754.868,2.328,2.328,0,0,0,1.248.308,2.221,2.221,0,0,0,1.176-.27.851.851,0,0,0,.436-.764.757.757,0,0,0-.38-.664A3.919,3.919,0,0,0,89.352,9.7a4.136,4.136,0,0,1-1.775-.626,1.367,1.367,0,0,1-.522-1.139,1.644,1.644,0,0,1,.286-.93,1.958,1.958,0,0,1,.815-.678,2.861,2.861,0,0,1,1.233-.251,2.555,2.555,0,0,1,2.42,1.328"/><path class="b" d="M98.356,10.1a2.418,2.418,0,0,1-.632,1.817,3.02,3.02,0,0,1-3.652-.005,2.421,2.421,0,0,1-.631-1.812V6.172H94.2V9.909a2.128,2.128,0,0,0,.412,1.447,2.024,2.024,0,0,0,2.572,0A2.123,2.123,0,0,0,97.6,9.909V6.172h.76Z"/><path class="b" d="M104.123,6.689a1.77,1.77,0,0,1,.579,1.389,1.773,1.773,0,0,1-.579,1.391,2.208,2.208,0,0,1-1.527.517h-1.452v2.447h-.758V6.172h2.21a2.2,2.2,0,0,1,1.527.517m-.564,2.286a1.119,1.119,0,0,0,.346-.9,1.118,1.118,0,0,0-.346-.9,1.622,1.622,0,0,0-1.077-.3h-1.338V9.274h1.338a1.622,1.622,0,0,0,1.077-.3"/><polygon class="b" points="110.755 11.722 110.755 12.433 106.22 12.433 106.22 6.172 110.612 6.172 110.612 6.883 106.979 6.883 106.979 8.904 109.806 8.904 109.806 9.616 106.979 9.616 106.979 11.722 110.755 11.722"/><path class="b" d="M114.578,9.834h-1.5v2.6h-.759V6.171h2.372a2.288,2.288,0,0,1,1.537.494A1.668,1.668,0,0,1,116.807,8a1.719,1.719,0,0,1-.369,1.12,1.882,1.882,0,0,1-1.016.626l1.765,2.685h-.9Zm-1.5-.712h1.6q1.329,0,1.328-1.12t-1.328-1.119h-1.6Z"/><rect class="b" x="118.676" y="6.171" width="0.759" height="6.262"/><polygon class="b" points="126.446 12.433 125.507 12.433 122.889 8.24 122.225 7.006 122.215 7.006 122.253 8.012 122.253 12.433 121.532 12.433 121.532 6.171 122.471 6.171 125.08 10.346 125.754 11.598 125.764 11.598 125.726 10.593 125.726 6.171 126.446 6.171 126.446 12.433"/><polygon class="b" points="132.945 6.883 130.763 6.883 130.763 12.433 130.005 12.433 130.005 6.883 127.822 6.883 127.822 6.172 132.945 6.172 132.945 6.883"/><polygon class="b" points="138.856 11.722 138.856 12.433 134.321 12.433 134.321 6.172 138.713 6.172 138.713 6.883 135.08 6.883 135.08 8.904 137.908 8.904 137.908 9.616 135.08 9.616 135.08 11.722 138.856 11.722"/><polygon class="b" points="145.336 12.433 144.396 12.433 141.778 8.24 141.114 7.006 141.105 7.006 141.142 8.012 141.142 12.433 140.422 12.433 140.422 6.171 141.361 6.171 143.97 10.346 144.644 11.598 144.653 11.598 144.616 10.593 144.616 6.171 145.336 6.171 145.336 12.433"/><path class="b" d="M151.768,6.988A3.091,3.091,0,0,1,152.6,9.3a3.09,3.09,0,0,1-.835,2.314,3.171,3.171,0,0,1-2.315.816h-2.021V6.171h2.021a3.172,3.172,0,0,1,2.315.817m-.564,4.093a2.5,2.5,0,0,0,.6-1.778,2.5,2.5,0,0,0-.6-1.779,2.189,2.189,0,0,0-1.675-.641h-1.338v4.839h1.338a2.189,2.189,0,0,0,1.675-.641"/><polygon class="b" points="158.856 11.722 158.856 12.433 154.321 12.433 154.321 6.172 158.713 6.172 158.713 6.883 155.079 6.883 155.079 8.904 157.907 8.904 157.907 9.616 155.079 9.616 155.079 11.722 158.856 11.722"/><polygon class="b" points="165.335 12.433 164.395 12.433 161.777 8.24 161.113 7.006 161.104 7.006 161.141 8.012 161.141 12.433 160.42 12.433 160.42 6.171 161.36 6.171 163.969 10.346 164.643 11.598 164.652 11.598 164.614 10.593 164.614 6.171 165.335 6.171 165.335 12.433"/><path class="b" d="M171.511,12.078a2.736,2.736,0,0,1-1.556.45,2.92,2.92,0,0,1-1.537-.394,2.616,2.616,0,0,1-1.01-1.119,3.855,3.855,0,0,1-.356-1.713,3.859,3.859,0,0,1,.356-1.707,2.621,2.621,0,0,1,1.01-1.125,3.2,3.2,0,0,1,3.032-.023,2.245,2.245,0,0,1,.915,1.091l-.75.351a1.688,1.688,0,0,0-.606-.825,1.748,1.748,0,0,0-1.015-.276,2.1,2.1,0,0,0-1.129.3,1.964,1.964,0,0,0-.75.868A3.161,3.161,0,0,0,167.85,9.3a2.776,2.776,0,0,0,.563,1.846,1.913,1.913,0,0,0,1.542.669,1.884,1.884,0,0,0,1.1-.323,1.757,1.757,0,0,0,.664-.949l.759.285a2.5,2.5,0,0,1-.968,1.248"/><rect class="b" x="173.988" y="6.171" width="0.759" height="6.262"/><path class="b" d="M180.363,10.7h-2.837l-.664,1.736h-.8L178.5,6.171h.9l2.428,6.262h-.806Zm-.275-.711-.845-2.221-.293-.873h-.019l-.276.845L177.8,9.986Z"/><path class="b" d="M190.391,6.988a3.091,3.091,0,0,1,.835,2.315,3.09,3.09,0,0,1-.835,2.314,3.171,3.171,0,0,1-2.315.816h-2.021V6.171h2.021a3.172,3.172,0,0,1,2.315.817m-.564,4.093a2.5,2.5,0,0,0,.6-1.778,2.5,2.5,0,0,0-.6-1.779,2.189,2.189,0,0,0-1.675-.641h-1.338v4.839h1.338a2.189,2.189,0,0,0,1.675-.641"/><polygon class="b" points="197.478 11.722 197.478 12.433 192.943 12.433 192.943 6.172 197.335 6.172 197.335 6.883 193.702 6.883 193.702 8.904 196.529 8.904 196.529 9.616 193.702 9.616 193.702 11.722 197.478 11.722"/><path class="b" d="M91.809,17.525l-.654.531a2.042,2.042,0,0,0-.679-.887,1.932,1.932,0,0,0-1.077-.261,1.9,1.9,0,0,0-1.133.3.905.905,0,0,0-.413.764.772.772,0,0,0,.161.5,1.271,1.271,0,0,0,.536.346,5.519,5.519,0,0,0,1.039.261,3.914,3.914,0,0,1,1.759.626,1.4,1.4,0,0,1,.518,1.157,1.529,1.529,0,0,1-.3.935,1.921,1.921,0,0,1-.849.626,3.361,3.361,0,0,1-1.271.223,3.293,3.293,0,0,1-1.618-.37,2.578,2.578,0,0,1-1.02-.986l.655-.532a1.939,1.939,0,0,0,.754.868,2.328,2.328,0,0,0,1.248.309,2.22,2.22,0,0,0,1.176-.271.851.851,0,0,0,.436-.764.757.757,0,0,0-.38-.664,3.919,3.919,0,0,0-1.346-.417,4.136,4.136,0,0,1-1.775-.626,1.367,1.367,0,0,1-.522-1.139,1.639,1.639,0,0,1,.286-.929,1.953,1.953,0,0,1,.815-.679,2.861,2.861,0,0,1,1.233-.251,2.555,2.555,0,0,1,2.42,1.328"/><polygon class="b" points="97.805 21.842 97.805 22.553 93.27 22.553 93.27 16.292 97.663 16.292 97.663 17.003 94.029 17.003 94.029 19.024 96.857 19.024 96.857 19.736 94.029 19.736 94.029 21.842 97.805 21.842"/><path class="b" d="M104.085,19.394v3.159h-.569l-.029-.844a1.8,1.8,0,0,1-.773.7,2.715,2.715,0,0,1-1.2.242,2.92,2.92,0,0,1-1.537-.394,2.6,2.6,0,0,1-1.01-1.119,3.854,3.854,0,0,1-.356-1.712,3.753,3.753,0,0,1,.366-1.708A2.648,2.648,0,0,1,100,16.591a2.924,2.924,0,0,1,1.532-.394,3.008,3.008,0,0,1,1.532.351,2.528,2.528,0,0,1,.973,1.081l-.693.38a1.613,1.613,0,0,0-.678-.816,2.145,2.145,0,0,0-1.134-.285,1.96,1.96,0,0,0-1.859,1.172,3.13,3.13,0,0,0-.266,1.343,2.811,2.811,0,0,0,.55,1.854,1.946,1.946,0,0,0,1.585.659,2.051,2.051,0,0,0,1.333-.417,1.45,1.45,0,0,0,.516-1.195v-.219H101.4v-.711Z"/><path class="b" d="M110.518,20.219a2.424,2.424,0,0,1-.631,1.817,3.024,3.024,0,0,1-3.653,0,2.429,2.429,0,0,1-.63-1.813V16.292h.759v3.737a2.123,2.123,0,0,0,.412,1.447,2.023,2.023,0,0,0,2.571,0,2.123,2.123,0,0,0,.413-1.447V16.292h.759Z"/><path class="b" d="M114.569,19.954h-1.5v2.6h-.759V16.292h2.372a2.288,2.288,0,0,1,1.537.493,1.669,1.669,0,0,1,.579,1.337,1.721,1.721,0,0,1-.37,1.12,1.882,1.882,0,0,1-1.016.626l1.765,2.685h-.9Zm-1.5-.712h1.6q1.327,0,1.328-1.12T114.674,17h-1.6Z"/><path class="b" d="M122.434,16.591a2.6,2.6,0,0,1,1.01,1.119,4.3,4.3,0,0,1,0,3.425,2.6,2.6,0,0,1-1.01,1.119,3.195,3.195,0,0,1-3.074,0,2.6,2.6,0,0,1-1.01-1.119,4.3,4.3,0,0,1,0-3.425,2.6,2.6,0,0,1,1.01-1.119,3.195,3.195,0,0,1,3.074,0m-3.079.986a2.776,2.776,0,0,0-.564,1.846,2.775,2.775,0,0,0,.564,1.845,2.112,2.112,0,0,0,3.084,0A2.775,2.775,0,0,0,123,19.423a2.776,2.776,0,0,0-.565-1.846,2.112,2.112,0,0,0-3.084,0"/><path class="b" d="M129.711,17.525l-.655.531a2.042,2.042,0,0,0-.679-.887,1.928,1.928,0,0,0-1.077-.261,1.9,1.9,0,0,0-1.133.3.908.908,0,0,0-.413.764.773.773,0,0,0,.162.5,1.273,1.273,0,0,0,.535.346,5.539,5.539,0,0,0,1.039.261,3.914,3.914,0,0,1,1.76.626,1.4,1.4,0,0,1,.517,1.157,1.523,1.523,0,0,1-.3.935,1.912,1.912,0,0,1-.848.626,3.366,3.366,0,0,1-1.272.223,3.3,3.3,0,0,1-1.618-.37,2.578,2.578,0,0,1-1.02-.986l.655-.532a1.941,1.941,0,0,0,.755.868,2.324,2.324,0,0,0,1.247.309,2.218,2.218,0,0,0,1.176-.271.85.85,0,0,0,.437-.764.757.757,0,0,0-.38-.664,3.926,3.926,0,0,0-1.347-.417,4.126,4.126,0,0,1-1.774-.626,1.364,1.364,0,0,1-.522-1.139,1.638,1.638,0,0,1,.285-.929,1.956,1.956,0,0,1,.816-.679,2.861,2.861,0,0,1,1.233-.251,2.556,2.556,0,0,1,2.42,1.328"/><path class="b" d="M138.553,17.108a3.091,3.091,0,0,1,.835,2.315,3.09,3.09,0,0,1-.835,2.314,3.173,3.173,0,0,1-2.315.816h-2.021V16.291h2.021a3.173,3.173,0,0,1,2.315.817m-.564,4.093a2.494,2.494,0,0,0,.6-1.778,2.5,2.5,0,0,0-.6-1.779A2.189,2.189,0,0,0,136.314,17h-1.338v4.839h1.338a2.189,2.189,0,0,0,1.675-.641"/><polygon class="b" points="145.403 21.842 145.403 22.553 140.868 22.553 140.868 16.292 145.26 16.292 145.26 17.003 141.626 17.003 141.626 19.024 144.454 19.024 144.454 19.736 141.626 19.736 141.626 21.842 145.403 21.842"/><polygon class="b" points="154.121 21.842 154.121 22.553 149.776 22.553 149.776 16.292 150.534 16.292 150.534 21.842 154.121 21.842"/><path class="b" d="M158.779,20.817h-2.836l-.665,1.736h-.8l2.438-6.261h.9l2.429,6.261h-.807Zm-.275-.712-.844-2.219-.294-.873h-.019l-.276.844-.853,2.248Z"/><polygon class="b" points="168.912 22.553 167.972 22.553 165.354 18.36 164.69 17.127 164.68 17.127 164.718 18.132 164.718 22.553 163.998 22.553 163.998 16.291 164.937 16.291 167.545 20.466 168.22 21.718 168.229 21.718 168.191 20.713 168.191 16.291 168.912 16.291 168.912 22.553"/><path class="b" d="M174.291,20.817h-2.836l-.664,1.736h-.8l2.439-6.261h.9l2.429,6.261h-.807Zm-.275-.712-.844-2.219-.294-.873h-.019l-.276.844-.854,2.248Z"/><path class="b" d="M180.714,22.2a2.736,2.736,0,0,1-1.556.45,2.92,2.92,0,0,1-1.537-.394,2.6,2.6,0,0,1-1.01-1.119,4.285,4.285,0,0,1,0-3.42,2.608,2.608,0,0,1,1.01-1.125,3.194,3.194,0,0,1,3.031-.023,2.247,2.247,0,0,1,.916,1.091l-.75.351a1.69,1.69,0,0,0-.607-.825,1.744,1.744,0,0,0-1.015-.276,2.105,2.105,0,0,0-1.129.3,1.956,1.956,0,0,0-.749.868,3.164,3.164,0,0,0-.266,1.347,2.776,2.776,0,0,0,.564,1.846,1.913,1.913,0,0,0,1.542.669,1.884,1.884,0,0,0,1.1-.323,1.762,1.762,0,0,0,.664-.949l.759.285a2.508,2.508,0,0,1-.968,1.248"/><rect class="b" x="182.953" y="16.291" width="0.759" height="6.262"/><path class="b" d="M189.632,16.591a2.606,2.606,0,0,1,1.011,1.119,4.308,4.308,0,0,1,0,3.425,2.606,2.606,0,0,1-1.011,1.119,3.195,3.195,0,0,1-3.074,0,2.61,2.61,0,0,1-1.01-1.119,4.3,4.3,0,0,1,0-3.425,2.61,2.61,0,0,1,1.01-1.119,3.195,3.195,0,0,1,3.074,0m-3.079.986a2.776,2.776,0,0,0-.564,1.846,2.775,2.775,0,0,0,.564,1.845,2.114,2.114,0,0,0,3.084,0,2.775,2.775,0,0,0,.565-1.845,2.776,2.776,0,0,0-.565-1.846,2.112,2.112,0,0,0-3.084,0M189.13,14.1l-.816,1.4H187.7l.54-1.4Z"/><polygon class="b" points="197.393 22.553 196.453 22.553 193.835 18.36 193.171 17.127 193.161 17.127 193.199 18.132 193.199 22.553 192.478 22.553 192.478 16.291 193.417 16.291 196.026 20.466 196.7 21.718 196.709 21.718 196.672 20.713 196.672 16.291 197.393 16.291 197.393 22.553"/><path class="b" d="M44.953,15.66a4.471,4.471,0,0,0-1.915-1.526A14.719,14.719,0,0,0,39.5,13.12a9.947,9.947,0,0,1-3.3-1.013,1.8,1.8,0,0,1-.926-1.589,2.022,2.022,0,0,1,.257-1.009.433.433,0,0,1,.026-.043,2.269,2.269,0,0,1,.663-.726,4.951,4.951,0,0,1,2.894-.67A4.562,4.562,0,0,1,43.331,10.4L45.3,9.2c-.553-1.329-2.547-3.436-6.191-3.436a8.553,8.553,0,0,0-3.645.673A5.666,5.666,0,0,0,33.846,7.5a4.175,4.175,0,0,0-1.072,1.578,4.512,4.512,0,0,0-.331,1.718,3.983,3.983,0,0,0,.613,2.252A4.559,4.559,0,0,0,35.02,14.6a15.7,15.7,0,0,0,3.628,1.051,10.434,10.434,0,0,1,3.19.976,1.65,1.65,0,0,1,.913,1.451,1.958,1.958,0,0,1-.222.934.569.569,0,0,0-.047.086,2.143,2.143,0,0,1-.744.719c-.063.037-.129.071-.2.106a6.145,6.145,0,0,1-2.215.5c-.124,0-.379.019-.379.019-.155.006-.315.01-.484.01-3.149,0-3.856-1.657-4.389-2.482-.58.308-1.97,1.194-1.97,1.194a6.592,6.592,0,0,0,6.359,3.594h.509a9.318,9.318,0,0,0,3.44-.588,5.464,5.464,0,0,0,1.894-1.207A3.714,3.714,0,0,0,45.23,19.6a4.305,4.305,0,0,0,.323-1.679,4.037,4.037,0,0,0-.6-2.264"/><path class="b" d="M59.443,15.66a4.467,4.467,0,0,0-1.914-1.526,14.746,14.746,0,0,0-3.54-1.014,9.946,9.946,0,0,1-3.3-1.013,1.8,1.8,0,0,1-.926-1.589,2.022,2.022,0,0,1,.257-1.009.336.336,0,0,1,.027-.043,2.251,2.251,0,0,1,.662-.726A4.951,4.951,0,0,1,53.6,8.07,4.564,4.564,0,0,1,57.822,10.4l1.97-1.2c-.554-1.329-2.548-3.436-6.192-3.436a8.553,8.553,0,0,0-3.645.673A5.666,5.666,0,0,0,48.336,7.5a4.175,4.175,0,0,0-1.072,1.578,4.512,4.512,0,0,0-.331,1.718,3.983,3.983,0,0,0,.613,2.252A4.559,4.559,0,0,0,49.51,14.6a15.7,15.7,0,0,0,3.628,1.051,10.434,10.434,0,0,1,3.19.976,1.65,1.65,0,0,1,.913,1.451,1.958,1.958,0,0,1-.222.934.64.64,0,0,0-.046.086,2.155,2.155,0,0,1-.745.719c-.063.037-.129.071-.2.106a6.145,6.145,0,0,1-2.215.5c-.124,0-.379.019-.379.019-.155.006-.315.01-.484.01-3.148,0-3.856-1.657-4.389-2.482-.58.308-1.97,1.194-1.97,1.194a6.592,6.592,0,0,0,6.359,3.594h.509a9.318,9.318,0,0,0,3.44-.588A5.464,5.464,0,0,0,58.8,20.958,3.7,3.7,0,0,0,59.72,19.6a4.305,4.305,0,0,0,.323-1.679,4.037,4.037,0,0,0-.6-2.264"/><polygon class="b" points="72.499 5.99 72.499 16.648 72.599 19.45 72.574 19.45 70.948 16.373 64.593 5.99 61.44 5.99 61.44 22.503 63.892 22.503 63.892 11.845 63.792 9.042 63.817 9.042 65.418 12.094 71.798 22.503 74.976 22.503 74.976 5.99 72.499 5.99"/><path class="b" d="M14,0A14,14,0,1,0,28,14,14,14,0,0,0,14,0m0,26.585A12.585,12.585,0,1,1,26.585,14,12.584,12.584,0,0,1,14,26.585"/><path class="b" d="M5.628,20.632A10.749,10.749,0,0,0,8.04,22.868,18.851,18.851,0,0,1,14,21.973a18.843,18.843,0,0,1,5.959.895,10.754,10.754,0,0,0,2.413-2.236A12.143,12.143,0,0,0,14,17.553a12.152,12.152,0,0,0-8.374,3.079"/><path class="b" d="M23.319,19.223a10.606,10.606,0,0,0,1.258-3.729c-1.783-2.337-4.95-4.371-10.575-4.371S5.206,13.158,3.423,15.5a10.611,10.611,0,0,0,1.26,3.732,16.452,16.452,0,0,1,9.327-3.266,16.406,16.406,0,0,1,9.309,3.262"/><path class="b" d="M24.65,13.191a10.633,10.633,0,0,0-1.069-3.919A11.9,11.9,0,0,0,14,4.816a11.905,11.905,0,0,0-9.585,4.46A10.625,10.625,0,0,0,3.35,13.19C5.263,11.428,8.589,9.5,14,9.5s8.736,1.928,10.649,3.69"/><line class="a" x1="203.584" y1="5.934" x2="203.584" y2="22.648"/><text class="c" transform="translate(208.919 12.434)">Persona jurídica<tspan x="0" y="9.848">Matrícula nº 798</tspan></text></svg>