<?xml version="1.0" encoding="UTF-8"?>
<svg width="35px" height="24px" viewBox="0 0 35 24" version="1.1" xmlns="http://www.w3.org/2000/svg" xmlns:xlink="http://www.w3.org/1999/xlink">
    <!-- Generator: Sketch 58 (84663) - https://sketch.com -->
    <title>Group 3 Copy</title>
    <desc>Created with Sketch.</desc>
    <defs>
        <polygon id="path-1" points="0 0 34.2857143 0 34.2857143 24 0 24"></polygon>
    </defs>
    <g id="Desktop" stroke="none" stroke-width="1" fill="none" fill-rule="evenodd">
        <g id="2.0-Nosotros-(desktop)" transform="translate(-516.000000, -1341.000000)">
            <g id="Group-6" transform="translate(500.000000, 1325.000000)">
                <g id="Group-3-Copy" transform="translate(16.000000, 16.000000)">
                    <mask id="mask-2" fill="white">
                        <use xlink:href="#path-1"></use>
                    </mask>
                    <g id="Clip-2"></g>
                    <path d="M31.4754098,18.2361734 C31.4754098,19.6950673 30.8837668,21.0224215 29.7063971,22.2122571 C28.5290275,23.4020927 27.3043264,24 26.0322938,24 C23.8136324,24 22.1570319,23.3243647 21.0565759,21.9671151 C19.9620362,20.6098655 19.4118082,18.8281016 19.4118082,16.6098655 C19.4118082,12.1674141 20.6246764,8.46636771 23.0504129,5.50074738 C25.4761494,2.53512706 28.6769382,0.69955157 32.6527795,0 L34.2857143,2.38565022 C30.7240232,3.55156951 28.2864538,5.14200299 26.9670899,7.1509716 C26.4346111,7.94020927 26.1742882,8.55007474 26.1742882,8.96860987 C26.1742882,10.3258595 26.5470233,11.264574 27.29841,11.7907324 C28.0497966,12.3168909 28.6532725,12.7832586 29.1206705,13.1898356 C29.5821521,13.6023916 29.9844694,14.038864 30.3335388,14.5052317 C31.0967583,15.5336323 31.4754098,16.7772795 31.4754098,18.2361734 M12.0636016,18.2361734 C12.0636016,19.6950673 11.4719586,21.0224215 10.2945889,22.2122571 C9.11721928,23.4020927 7.89251818,24 6.62048564,24 C4.40182423,24 2.74522372,23.3243647 1.64476766,21.9671151 C0.544311599,20.6098655 0,18.8281016 0,16.6098655 C0,12.1674141 1.21286824,8.46636771 3.63860471,5.50074738 C6.06434118,2.53512706 9.26513004,0.69955157 13.2409713,0 L14.8679896,2.38565022 C11.312215,3.55156951 8.87464563,5.14200299 7.55528165,7.1509716 C7.02280291,7.94020927 6.75656354,8.55007474 6.75656354,8.96860987 C6.75656354,10.3258595 7.13521509,11.264574 7.88660175,11.7907324 C8.63798841,12.3168909 9.24146432,12.7832586 9.70294589,13.1898356 C10.1644275,13.6023916 10.5726612,14.038864 10.9158141,14.5052317 C11.6790336,15.5336323 12.0636016,16.7772795 12.0636016,18.2361734" id="Fill-1" fill="#FF6042" mask="url(#mask-2)"></path>
                </g>
            </g>
        </g>
    </g>
</svg>